<?xml version="1.0" encoding="utf-8"?>
<!DOCTYPE svg PUBLIC "-//W3C//DTD SVG 1.1//EN" "http://www.w3.org/Graphics/SVG/1.1/DTD/svg11.dtd">
<svg version="1.1" id="Layer_1" xmlns="http://www.w3.org/2000/svg" xmlns:xlink="http://www.w3.org/1999/xlink" x="0px" y="0px"
	 viewBox="0 0 1920 1690" enable-background="new 0 0 1920 1690" xml:space="preserve">
<g>
	<path fill="#FFFFFF" stroke="#FFFFFF" stroke-width="0.394" d="M1380.1,1319.6c8.7-2.7,17.9-2.4,26.9-1.5
		c8.2,0.7,15.3,5.1,22.4,8.9c-0.2,5.7-0.9,11.4-2,17c-0.9,3.7-2.4,8.2-6.5,9.3c-8.8,2.8-18.2,1.2-26.9-0.8c-7.3-2-14.7-4.8-20.6-9.8
		c-4.6-3.7-6.4-10.6-3.7-15.9C1372.1,1323.1,1375.9,1320.5,1380.1,1319.6z"/>
	<path stroke="#000000" stroke-width="0.394" d="M834.3,0h39.4c126.7,1.7,253.1,16.4,377.2,41.8c81.5,17,162.4,37.8,240.4,67
		c75.7,28.5,148.9,64.8,214.7,112.2c31.5,22.7,61.3,47.9,88.4,75.6c27.3,27.7,51.6,58.3,73.5,90.4c10.9,16.1,21.3,32.6,30.5,49.8
		c9.8,18.8,18.9,38.5,21.6,59.8v12.7c-1,7-3.7,13.9-9,18.8c-7.4,7-17.9,9.3-27.8,10c-22.6,1.3-45.5-3.5-65.8-13.6
		c-32.9-16-60.7-40.3-88.9-63.1c-15.1-12.3-30.4-24.5-47-34.7c-54-34.1-111.5-63.2-172.1-83.7c62.8,42.3,118.9,94.9,163.4,156.2
		c23.4,32.3,43.6,66.9,59.7,103.3c37.2,84.3,52.2,177.6,48.6,269.5c-5,121.4-41.2,241.6-105.5,344.8c-4.4,6.3-7.2,13.4-11.1,20
		c-14.6,25.8-34.5,48.3-56.2,68.2c17.4-8.5,34.2-18.2,50.9-28c15.4-9.4,31-18.6,45.4-29.5c31.1-23.4,59.7-50.4,92.9-71
		c17.3-10.7,36.1-19.5,56.3-22.8c12.6-1.9,25.6-2.9,38.3-0.6c7.7,1.5,15.5,4.7,20.7,10.8c4.2,4.8,6.4,11.1,7.2,17.3v12.2
		c-2.2,17.7-9.1,34.5-16.8,50.4c-12.4,25.1-27.6,48.6-43.8,71.3c-17.7,24.9-36.9,48.8-58,71c-43.8,46.2-94.5,85.4-148.9,118.1
		c-63.9,38.4-132.7,68.3-203.3,91.9c-40.7,13.6-82.1,25-123.7,35.3c-88.4,21.7-178.3,37.4-268.9,47.3
		c-56.1,6.1-112.5,9.8-168.9,11.1h-67.3c-95-2.2-190.4-12.2-282.5-36.4c-38.9-10.3-77.1-23.3-114-39.5
		c-11.2,22.2-22.4,44.4-33.6,66.6c-17.5-5.9-33.4-15.8-48.1-26.8c-25.5-19.1-49.1-41.5-78.5-54.6c-42.7-18.5-88-29.4-131.7-45.2
		c-31.5-11.3-62.5-25.3-88.9-46.2c-10.5-8.3-20.2-17.6-28.8-27.9c1.2-1.3,2.3-2.7,3.5-4c12.5,10.1,27,17.3,41.7,23.5
		c37.7,15.7,77.5,25.4,116.9,35.9c13,3.5,26.1,6.9,38.8,11.4c45.9,17.2,91.7,35.5,133.5,61.4c11.6,7.3,20.8,17.5,31.2,26.3
		c10.9-11.3,17.1-26.1,23.5-40.2c8.6-19.3,15.5-39.7,27.8-57.2c50.5-67.2,89.6-142.5,144.7-206.3c-63.9-42.3-136.9-69.3-198.7-115
		c-13.9-10.3-27.1-21.5-39-34c-15-15.6-27.2-33.4-41-49.9c-13.4-16-27.1-32.4-44.4-44.3c0-0.3,0-0.8,0-1c7.2-1.3,14.2,1.9,20.4,5.3
		c17.4,9.9,31.2,24.7,45.4,38.6c26.7,25.7,56.8,47.6,88.3,67c49.6,30.4,102,55.9,150.3,88.4c11.3,7.2,23.7,12.3,35.7,18.3
		c6.7,3.5,13.9,7.2,18.5,13.6c3.2,4.3,3,10.4,0.6,15c-4.3,9-12.5,15.2-19,22.5c36,18.5,72.4,36.4,109.8,51.9
		c42.2,17.5,86,31.8,131.3,38.8c26.9,4.1,54.3,5.8,81.4,3.5c-20.7-5.1-40.6-13-60-21.8c-71.9-32.3-139.9-74.4-197.6-128.4
		c-54.3-50.6-98.7-112.3-127.2-181c-19.3-46.3-31.5-95.4-36.9-145.2c-4.4-37.8-3.7-75.9-3.3-113.9c0.8-45.2,3-90.6,11.3-135.2
		c14.6-75.7,45.2-148.7,90.9-210.9c42.4-58.4,96.7-106.9,154.1-150.2c45-33.9,91.9-65,138.8-96.2c1.5-1,3.1-1.8,4.8-2.4
		c19-7.4,38.4-14,58.1-19.4c-44.1-7.9-89.5-6-133.3,2.9c-43.3,8.7-85,23.5-125.5,41c-32.8,14.2-64.9,30-96.8,46.4
		c6.5,7.2,14.5,13.4,18.9,22.3c2.4,4.7,2.7,10.7-0.4,15.1c-4,5.8-10.4,9.3-16.4,12.6c-10.4,5.4-21.3,9.9-31.5,15.7
		c-6.1,3.4-11.8,7.4-17.7,11.2c-64.2,41.7-135.5,72.3-195.6,120.3c-15,11.9-29.2,24.8-42.6,38.5c-11.2,10.9-22.8,21.7-36.7,29
		c-6,3.2-12.8,5-19.6,4.1c12.9-8.7,23.6-20,33.9-31.5c13.2-14.9,25.2-30.8,37.5-46.4c20.8-26.3,47.2-47.7,75.2-66
		c57-37.4,120.9-62.9,177.8-100.4c-55-64-94.2-139.3-144.7-206.5c-10.4-14.7-16.7-31.7-23.9-48c-7.5-17.1-14.4-35.2-27.3-49.2
		c-7.5,5.9-13.9,13-21.4,18.9c-7.1,6.2-15.5,10.7-23.6,15.5c-35.6,20.4-73.6,35.8-111.9,50.3c-20.4,8.1-41.9,13-63.1,18.8
		c-30.5,8.1-61.1,16.3-90.5,27.6c-18.2,7.2-36.3,15.2-51.6,27.6c-1.2-1.3-2.4-2.7-3.6-4c24-29,56.9-49.2,91.3-63.7
		c50.3-21.4,104.1-32.8,154.5-54c30.8-12.7,55.3-36,81.6-55.8c14.9-11.2,30.9-21.2,48.7-27.2C401.5,31.8,412.6,54,424,76.1
		c39.9-17.5,81.3-31.3,123.5-41.9C641.1,10.6,737.9,1.4,834.3,0 M716.1,31.6C621.3,42.2,527.1,61.1,437,93c-1.4,0.4-2.7,1.1-3.9,1.9
		c0.3,0.3,1,0.9,1.3,1.2c3.5,7.5,7.6,14.6,11.4,22c37.6,69.9,78.5,138.6,130.4,199c2.7-0.6,5.1-2.1,7.6-3.2
		c57.9-27.1,117.4-51.4,179.4-67.1c46.8-11.8,95.2-18.4,143.6-16.3c30.8,1.3,61.4,6.4,91.1,15c47.6,13.6,92.7,34.6,137,56.4
		c38.8,19.1,77.2,39.1,116.9,56.3c38.4,16.6,78.2,30.6,119.7,37.1c19.8,3,40.2,4.8,59.9,0.1c8.9-2.3,18.3-6.4,23.1-14.7
		c4.5-7.6,3.2-17.1,0.1-25c-5.6-14-14.9-26.2-25.4-36.9c-15.4-15.5-33.8-27.8-53.1-37.9c-16.4-8.3-33.5-15.6-51.2-20.5
		c20.2,4.5,40.1,10.6,60,16.4c44,13.3,87.4,28.8,129.7,46.9c75.2,32,146.7,72.2,215.3,116.5c15.9,10.4,32.1,20.4,47.1,32
		c15.1,11.4,30.1,22.8,46.2,32.8c12.3,7.5,25.2,14.6,39.2,18.4c8.9,2.3,18.9,3.2,27.5-1c8.8-4.2,14.2-13.3,16.8-22.4l0.3,0.2
		c0.4-1,0.7-1.9,1.2-2.9c-1.2-15.1-4.1-30-9.6-44.2c-12.7-33.4-34-62.7-57.4-89.4c-27-30.4-57.5-57.5-89.3-82.7
		c-30.1-23.6-61.5-45.6-94-65.8c-32.3-20.3-65.9-38.6-100.6-54.5c-80.4-37.3-164.6-65.7-250.5-87.3C1206,48,1102.8,32.3,999,25.7
		C904.8,19.8,810,21.3,716.1,31.6 M906.1,285.2c-5.6,1.3-11.3,2.4-16.7,4.2c-29,20.3-57.7,41-86.4,61.8
		c-57.2,42.2-113.6,86.5-161.5,139.3c-46,50.2-83.2,109.1-104.9,173.9C518.8,716,511,770.6,509.3,825c-0.9,5-0.5,10-0.7,15
		c-0.3,14.1-0.1,28.1,0.3,42.1c0.3,1.3,0.5,2.5,0.5,3.9c0.1,10,0.8,20,1.7,29.9c7.4,87.5,32.6,174,76.7,250.2
		c38.6,67.3,91.7,126.1,154,172.1c66.6,49.3,143.6,84.2,224.2,103.3c8.2-1.1,16.1-4.2,24.1-6.3c20.6-6.8,40.8-14.7,60.6-23.5
		c74.7-32.9,144.3-76.2,219-109.2c39.2-17.4,79.9-32,122.2-39.7c11.9-2.3,24-4,36.1-3.6c11.3,0.1,23.3,2.2,32.6,9
		c7.2,4.9,11.9,13.1,13.5,21.6c1.7,10.9,0,22-3.8,32.3c-6.2,17.1-16.8,32.2-29.2,45.3c8.1-1.9,16.1-4.3,24.2-6.3l0.7-0.4
		c7-1.9,14.1-3.8,20.9-6.3c54.2-33.1,103.9-74.1,145.3-122.4c54-62.8,93.2-138.4,112.3-219c2.3-10.3,4.9-20.6,6.3-31.1l0.4,0.8
		c1.1-4.5,1.5-9.1,2.3-13.6c0.3-2.2,1-4.4,0.4-6.5c6.1-37.1,5.6-75,4.7-112.5c-2.8-49.2-11.9-97.9-26.3-145
		c-45.8-149.8-146-282.2-277.8-366.9c11.4,17,21.5,36.4,20.3,57.5c-0.6,7.3-3,14.6-7.7,20.3c-5.3,6.5-13,10.6-21,12.7
		c-21.4,5.5-43.6,0.6-64.9-3.4c0-0.1-0.1-0.3-0.2-0.3c-3.7-0.5-7.3-1.3-10.8-2.2c-22.2-5.3-43.9-12.3-65.2-20.5
		c-75.4-29-144.7-71.2-217.1-106.5c-23.2-11.4-46.7-22-70.8-31.2c-3.9-0.9-8-0.4-11.9,0C971.8,270.3,938.8,277.1,906.1,285.2
		 M1860.4,1167.7c-15.5,4.6-29.6,12.9-43.1,21.6c-18.7,12.1-35.9,26.2-54,39.1c-49.1,32.8-99.3,63.9-151.3,91.6
		c-72.6,38.9-149.1,70.3-228,93.9c-19.3,5.7-38.5,11.6-58.1,15.9c16.8-4.8,33-11.6,48.6-19.4c18.1-9.3,35.4-20.5,50.4-34.4
		c11.5-10.8,21.6-23.3,28.3-37.6c3.3-7.2,5.5-15.3,3.6-23.1c-1.5-6.5-6.4-11.7-12.1-15c-8.4-4.8-18.2-6.7-27.7-7.6
		c-14.7-1.2-29.5,0-44,2.2c-59.7,9.2-115.5,33.5-169.5,59.7c-38.4,18.6-76.2,38.5-115.1,56.1c-39.7,18-80.6,33.7-123.5,42.3
		c-48.6,9.8-98.9,9.3-147.8,1.7c-45.2-7-89.3-19.7-132.1-35.4c-37-13.4-72.9-29.5-108.5-46c-30.6,35.3-57.3,73.8-81.7,113.6
		c-21.4,34.9-41.3,70.7-60.1,107c-0.3,0.5-0.9,1.5-1.2,2c5.3,2.4,11,4,16.6,6c85.5,29,174.6,46.6,264.1,56.7
		c102.2,11.3,205.4,12.3,307.8,4.5c93.3-7.2,186.1-21.7,277-44c73.5-18,145.9-41.2,215.7-70.4c37-15.6,73.5-32.5,108.4-52.5
		c26.3-15,51.8-31.1,76.7-48.3c48.5-33.6,94.9-70.6,135-113.9c24-26.3,46-55,60.3-87.8c7.5-16.8,11.9-34.9,13.2-53.2
		c-0.4-0.9-0.8-1.8-1.1-2.6l-0.3,0.3c-2.7-9.2-8.1-18.3-17-22.6C1880.7,1163.7,1870,1164.9,1860.4,1167.7z"/>
	<path fill="#E6BB90" stroke="#E6BB90" stroke-width="0.394" d="M716.1,31.6C810,21.3,904.8,19.8,999,25.7
		c103.8,6.6,207,22.3,307.9,47.5c85.9,21.6,170.1,50,250.5,87.3c34.7,15.9,68.2,34.2,100.6,54.5c32.5,20.2,63.9,42.2,94,65.8
		c31.9,25.2,62.3,52.3,89.3,82.7c23.4,26.7,44.7,56,57.4,89.4c5.4,14.1,8.4,29.1,9.6,44.2c-0.4,0.9-0.8,1.9-1.2,2.9l-0.3-0.2
		c-6.8-6.5-14-12.4-21.1-18.5c-13.7-12.6-27.7-24.9-41.1-37.9c-6.4-5.6-13.1-10.9-18.9-17.1c-27.6-24.5-55.1-49.3-84.9-71
		c-21.8-16.2-44.6-31.3-69.2-42.9c-4.6-2.6-9.8-4-14-7.2c5.5,0.5,10.4,3,15.7,4.5c19.1,5.7,38.2,12,58,15.1
		c3.4,0.2,7.5,1.4,10.5-0.8c0.7-1.9-0.2-3.8-1.6-5c-15.2-14.4-32-27-49.6-38.4c-6.4-3.6-12.6-7.5-19-11.1
		c-17.4-10.5-36-18.9-54.1-28c-11.4-5.3-22.9-10.6-34.5-15.6c-15.1-6.3-29.8-13.3-45.3-18.7c-20.8-8.7-42.5-15-64-21.6
		c-20.9-6-42-10.9-63.1-16.2c-36.2-8.5-72.6-15.8-108.9-24c-18.3-3.6-36.4-8.4-54.6-12.7c-34-8.4-67.6-18.1-100.4-30.5
		c-75.5-28-155-44.7-235-52.9c-23.9-2.3-47.9-3.8-71.9-5.1c-9.4,0.1-18.7-0.3-28.1-0.2c-6.7,0-13.3-0.9-20-0.5
		c-17.6,1.2-35.4-0.1-53,1.6c-16.3,0.3-32.6,1.7-48.9,3c-39.7,3.1-79.1,8.8-118.3,15.7c-18,3-35.7,7.2-53.6,10.8
		c-21.2,5.1-42.4,10.4-63.4,16.2c-6.8,1.7-13.1,5-20.2,5.5c-0.3-0.3-1-0.9-1.3-1.2c1.2-0.8,2.5-1.4,3.9-1.9
		C527.1,61.1,621.3,42.2,716.1,31.6z"/>
	<path fill="#E6BB90" stroke="#E6BB90" stroke-width="0.394" d="M1906.9,1190.5l0.3-0.3c0.3,0.9,0.7,1.7,1.1,2.6
		c-1.3,18.3-5.7,36.4-13.2,53.2c-14.3,32.8-36.4,61.5-60.3,87.8c-40.2,43.3-86.6,80.4-135,113.9c-24.9,17.1-50.5,33.3-76.7,48.3
		c-34.9,20-71.4,36.9-108.4,52.5c-69.9,29.2-142.2,52.3-215.7,70.4c-90.9,22.3-183.7,36.8-277,44c-102.5,7.8-205.7,6.8-307.8-4.5
		c-89.6-10.1-178.7-27.7-264.1-56.7c-5.5-2-11.2-3.6-16.6-6c0.3-0.5,0.9-1.5,1.2-2c52.9,16,106.9,28.6,161.5,37.1
		c19.5,3.5,39.2,5.6,58.8,8c27.3,3.1,54.7,5.5,82.1,6.5c10.3,1,20.7,0.3,31,1.3c14.6,0.5,29.3,0.2,43.9,0.2c9,0.2,18-1.2,27-0.9
		c92-3.4,184.1-17.2,271.9-45.3c20.5-6.7,40.8-14.2,61.2-21.5c40.6-13.3,82.2-23.8,123.9-32.9c42.3-9.4,84.9-17.9,127-28.2
		c40.3-9.7,80.3-21,118.9-36c38-15.5,75.6-32.1,111.9-51c13.9-7.7,28-15,41.1-24c10.1-6.8,20.4-13.3,29.5-21.4
		c5.5-4.8,11.5-9.1,16.2-14.9c1.2-1.4,2.5-4.2,0.1-5.2c-2.8-0.6-5.6-0.3-8.4,0c-21.3,3.2-41.9,9.9-62.5,16.3
		c-4,1.2-7.9,3.1-12.1,3.2c4.3-3.1,9.5-4.7,14.3-7c5.1-2.4,9.9-5.5,15-8c18.6-9.8,35.7-22,52.8-34.1c11.3-8.7,22.7-17.1,33.5-26.5
		c15.1-11.8,29.1-25,43.7-37.5c19.8-18.2,39.6-36.3,59.4-54.4C1886.2,1208.1,1896.9,1199.7,1906.9,1190.5z"/>
	<path fill="#F3C99F" stroke="#F3C99F" stroke-width="0.394" d="M738.9,44.9c17.6-1.8,35.4-0.4,53-1.6c6.7-0.4,13.3,0.5,20,0.5
		c9.3,0,18.7,0.3,28.1,0.2c24,1.3,48,2.8,71.9,5.1c80.1,8.2,159.5,24.8,235,52.9c32.7,12.4,66.4,22.2,100.4,30.5
		c18.2,4.3,36.3,9,54.6,12.7c36.2,8.2,72.7,15.4,108.9,24c21.1,5.2,42.2,10.2,63.1,16.2c21.5,6.6,43.2,12.9,64,21.6
		c15.4,5.4,30.2,12.4,45.3,18.7c11.6,5,23,10.3,34.5,15.6c18.1,9.1,36.7,17.5,54.1,28c6.4,3.6,12.5,7.6,19,11.1
		c17.6,11.3,34.4,24,49.6,38.4c1.4,1.2,2.3,3.2,1.6,5c-3,2.2-7.1,1.1-10.5,0.8c-19.8-3.1-38.8-9.4-58-15.1c-5.2-1.5-10.2-4-15.7-4.5
		c4.2,3.2,9.4,4.6,14,7.2c24.6,11.7,47.3,26.8,69.2,42.9c29.8,21.8,57.3,46.5,84.9,71c5.8,6.2,12.5,11.5,18.9,17.1
		c13.4,13,27.4,25.2,41.1,37.9c7.1,6.1,14.3,12.1,21.1,18.5c-2.7,9.1-8,18.2-16.8,22.4c-8.6,4.2-18.6,3.3-27.5,1
		c-14-3.8-26.9-10.9-39.2-18.4c-16-10-31.1-21.4-46.2-32.8c-15-11.6-31.3-21.6-47.1-32c-68.6-44.3-140.1-84.5-215.3-116.5
		c-42.3-18.1-85.7-33.6-129.7-46.9c-19.9-5.8-39.8-11.9-60-16.4c17.8,4.9,34.8,12.2,51.2,20.5c19.3,10.1,37.7,22.4,53.1,37.9
		c10.5,10.7,19.7,22.9,25.4,36.9c3.1,7.9,4.3,17.4-0.1,25c-4.9,8.3-14.2,12.3-23.1,14.7c-19.7,4.7-40.1,2.9-59.9-0.1
		c-41.4-6.5-81.3-20.5-119.7-37.1c-39.7-17.2-78.1-37.2-116.9-56.3c-44.3-21.8-89.4-42.7-137-56.4c-29.6-8.6-60.2-13.7-91.1-15
		c-48.4-2.2-96.8,4.5-143.6,16.3c-62.1,15.7-121.6,40-179.4,67.1c-2.5,1.1-4.9,2.6-7.6,3.2c-51.9-60.4-92.8-129.1-130.4-199
		c-3.8-7.3-7.9-14.5-11.4-22c7-0.5,13.4-3.8,20.2-5.5c21-5.8,42.2-11.1,63.4-16.2c17.9-3.6,35.6-7.8,53.6-10.8
		C610.9,56.8,650.3,51,690,47.9C706.3,46.7,722.6,45.2,738.9,44.9 M1398.5,336.9c-7,1.7-14,3.6-20.2,7.4c-5.3,2.6-9.6,7.7-9.8,13.7
		c-0.5,4.7,3,8.7,6.9,10.9c9.2,4.6,19.7,4.1,29.7,3.6c7.9-0.6,15.4-3.8,22.2-8c1.1-0.7,2.8-1.7,2.2-3.2c-1.4-7.8-0.3-17-6.3-23.1
		C1415.5,334.3,1406.6,335.6,1398.5,336.9z"/>
	<path fill="#F3C99F" stroke="#F3C99F" stroke-width="0.394" d="M1860.4,1167.7c9.5-2.7,20.2-4,29.5,0.3c8.9,4.3,14.3,13.4,17,22.6
		c-10,9.2-20.7,17.5-30.5,26.9c-19.8,18.2-39.7,36.2-59.4,54.4c-14.6,12.5-28.6,25.7-43.7,37.5c-10.8,9.4-22.2,17.8-33.5,26.5
		c-17.1,12.1-34.3,24.3-52.8,34.1c-5.1,2.5-9.9,5.6-15,8c-4.8,2.3-9.9,3.9-14.3,7c4.2-0.2,8.1-2.1,12.1-3.2
		c20.6-6.4,41.1-13.1,62.5-16.3c2.8-0.3,5.6-0.6,8.4,0c2.4,1,1,3.8-0.1,5.2c-4.6,5.7-10.7,10-16.2,14.9
		c-9.1,8.1-19.4,14.6-29.5,21.4c-13.1,9-27.2,16.3-41.1,24c-36.4,19-74,35.5-111.9,51c-38.6,15-78.6,26.3-118.9,36
		c-42.1,10.3-84.7,18.8-127,28.2c-41.8,9.1-83.3,19.6-123.9,32.9c-20.4,7.3-40.6,14.8-61.2,21.5c-87.8,28.1-179.9,41.9-271.9,45.3
		c-9-0.3-18,1.1-27,0.9c-14.7-0.1-29.3,0.2-43.9-0.2c-10.3-1-20.7-0.3-31-1.3c-27.5-1.1-54.8-3.4-82.1-6.5
		c-19.6-2.5-39.3-4.5-58.8-8c-54.6-8.5-108.6-21.1-161.5-37.1c18.9-36.3,38.7-72.1,60.1-107c24.5-39.7,51.1-78.2,81.7-113.6
		c35.7,16.5,71.6,32.6,108.5,46c42.9,15.7,87,28.4,132.1,35.4c48.9,7.6,99.2,8.1,147.8-1.7c42.8-8.6,83.8-24.3,123.5-42.3
		c38.9-17.6,76.7-37.5,115.1-56.1c53.9-26.1,109.8-50.5,169.5-59.7c14.5-2.3,29.3-3.4,44-2.2c9.6,0.9,19.3,2.7,27.7,7.6
		c5.7,3.2,10.6,8.5,12.1,15c1.9,7.8-0.3,16-3.6,23.1c-6.7,14.3-16.8,26.8-28.3,37.6c-15,13.9-32.2,25.2-50.4,34.4
		c-15.6,7.9-31.8,14.7-48.6,19.4c19.6-4.3,38.8-10.3,58.1-15.9c78.9-23.6,155.4-55,228-93.9c52.1-27.7,102.3-58.9,151.3-91.6
		c18.1-12.9,35.3-27,54-39.1C1830.9,1180.6,1844.9,1172.3,1860.4,1167.7 M1380.1,1319.6c-4.2,1-8,3.5-10.4,7.1
		c-2.8,5.3-0.9,12.2,3.7,15.9c5.8,5,13.3,7.8,20.6,9.8c8.7,2,18.2,3.7,26.9,0.8c4.1-1,5.6-5.6,6.5-9.3c1.1-5.6,1.9-11.3,2-17
		c-7.1-3.8-14.2-8.2-22.4-8.9C1398,1317.2,1388.8,1316.9,1380.1,1319.6z"/>
	<path fill="#999999" stroke="#999999" stroke-width="0.394" d="M358.6,74.6c7.5-5.9,13.9-13,21.4-18.9c12.9,14,19.8,32.1,27.3,49.2
		c7.2,16.4,13.4,33.4,23.9,48c50.5,67.2,89.7,142.6,144.7,206.5c-57,37.5-120.8,63-177.8,100.4c-28,18.3-54.4,39.7-75.2,66
		c-12.3,15.6-24.4,31.5-37.5,46.4c-10.3,11.5-21.1,22.8-33.9,31.5c-7.3,4.5-15.9,8.7-24.6,6.5c-6.5-1.6-10.6-7.4-14-12.8
		C140.2,489,64.6,381.9,5.8,265.1c-2.6-4.8-4.6-9.9-5.8-15.3v-9.3c2.4-10.7,9.5-19.6,17.8-26.4c15.3-12.3,33.5-20.4,51.6-27.6
		c29.5-11.3,60-19.5,90.5-27.6c21.2-5.7,42.7-10.6,63.1-18.8c38.3-14.5,76.3-29.9,111.9-50.3C343.1,85.3,351.4,80.7,358.6,74.6z"/>
	<path fill="#999999" stroke="#999999" stroke-width="0.394" d="M215.2,1089.1c3.3-5.1,8.6-9.4,14.8-9.7c8.3-0.5,16.1,3.5,22.7,8.1
		c17.3,12,31,28.3,44.4,44.3c13.9,16.5,26.1,34.4,41,49.9c12,12.4,25.2,23.7,39,34c61.8,45.8,134.8,72.7,198.7,115
		c-55.1,63.8-94.1,139.2-144.7,206.3c-12.3,17.4-19.2,37.9-27.8,57.2c-6.4,14.1-12.6,28.9-23.5,40.2c-10.4-8.7-19.6-19-31.2-26.3
		c-41.7-26-87.6-44.2-133.5-61.4c-12.7-4.6-25.8-7.9-38.8-11.4c-39.4-10.5-79.2-20.3-116.9-35.9c-14.7-6.3-29.3-13.4-41.7-23.5
		c-8.7-7.2-16.6-16.7-17.8-28.3v-7.2c1.9-9.4,7.1-17.6,11.3-26.1C69.9,1300.4,144.2,1195.6,215.2,1089.1z"/>
	<path fill="#0080FF" stroke="#0080FF" stroke-width="0.394" d="M906.1,285.2c32.7-8.1,65.7-14.9,98.9-20.7c3.9-0.3,8-0.8,11.9,0
		c24.1,9.2,47.7,19.9,70.8,31.2c-48.4,14.4-96.2,31.2-141.6,53.4c-20.7,9.3-40.3,20.8-60.1,31.9c-5.4,3-11.1,5.4-16.1,8.9
		c-28.8,17.6-56.7,36.9-83.4,57.6c-9.5,8.2-19.6,15.6-28.3,24.7c-9.3,8.3-17.8,17.6-26.1,26.9c-8.1,9.9-16.7,19.4-23.8,30.1
		c-3.9,5.7-8.7,11-11.4,17.4c-20.4,8.2-40.3,17.8-59,29.3c-10.9,6.7-21.7,14.1-30.1,23.9c-3.5,4.4-7.5,9.4-7,15.3
		c1.6,5.1,7.3,7.1,12.1,7.9c8.4,1.4,17.3,1,25.4,4.2c4.2,1.7,7.9,4.9,9.3,9.3c0.8,3.3,0.2,6.7-0.2,10c-5.7,6.5-12.4,12.2-17.9,18.9
		c-3.3,3.7-6.4,7.6-9.6,11.4l0.6-1.2c-3.1,3.8-7.2,6.7-10.4,10.5c-14.8,17.9-25.7,39.7-27.6,63.1c-0.3,12.4-0.8,25,2.8,37
		c5.5,18.6,16.9,34.8,29.6,49.3c-0.6,10.9-0.6,21.8,0.3,32.6c1.1,28.1,3.9,56.3,9,84c0.6,6.1,2.9,11.9,3.6,17.9
		c0.9,7.7,3.6,14.9,5,22.5c2.9,10.7,5.8,21.4,8.7,32.2c3.5,9.3,6,19,9.7,28.3c4.5,12,8.7,24.1,14.5,35.5c7,16.8,15.8,32.6,24.6,48.5
		c6.9,11.8,14.6,23.2,22.5,34.4c4.1,6.4,8.9,12.4,13.9,18.2c4.5,6.7,10.2,12.5,15.6,18.5c19.2,21.1,41.6,39.2,66,54
		c18.2,10.2,36.9,19.7,56.8,26.1c44.5,15.8,92,22,139.1,22.5c52.3,0.8,104.4-4.9,156-12.6c44.8-6.7,89.4-15.5,133.2-26.9
		c10.8-2.4,21.3-5.8,31.8-9c19.6-5.7,39.2-11.7,58.4-18.8c19.5-6.6,38.3-14.7,57.4-22.4c9-4.1,18.1-7.8,27-12.2
		c9.8-5.1,20-9,29.6-14.5c9.5-5.2,19.4-9.7,28.6-15.3c5.5-3.5,11.1-6.7,16.8-9.9c10.5-5.3,20.2-12,30.2-18.1
		c31-19.8,60.6-41.8,89-65c17.1-14.1,33.4-29.2,49.7-44.2c10.5-11,21.4-21.6,32.1-32.3c0.2,1.3,0.5,2.5,0.7,3.8
		c-19.1,80.6-58.2,156.3-112.3,219c-41.4,48.3-91,89.3-145.3,122.4c-6.8,2.6-13.9,4.4-20.9,6.3l-0.7,0.4c-8.1,2-16.1,4.4-24.2,6.3
		c12.4-13.1,23-28.3,29.2-45.3c3.8-10.3,5.5-21.4,3.8-32.3c-1.6-8.5-6.2-16.7-13.5-21.6c-9.3-6.9-21.3-8.9-32.6-9
		c-12.1-0.4-24.2,1.3-36.1,3.6c-42.3,7.6-83,22.2-122.2,39.7c-74.7,33-144.2,76.3-219,109.2c-19.8,8.8-40,16.7-60.6,23.5
		c-8,2.2-15.9,5.2-24.1,6.3c-80.6-19.1-157.6-54-224.2-103.3c-62.3-46.1-115.4-104.9-154-172.1c-44.1-76.2-69.3-162.7-76.7-250.2
		c-0.9-9.9-1.6-19.9-1.7-29.9c-0.1-1.3-0.2-2.6-0.5-3.9c-0.3-14-0.6-28.1-0.3-42.1c0.2-5-0.2-10,0.7-15c1.8-54.4,9.5-109,27.3-160.6
		c21.7-64.8,58.9-123.7,104.9-173.9c47.9-52.8,104.3-97.1,161.5-139.3c28.7-20.8,57.4-41.5,86.4-61.8
		C894.8,287.6,900.5,286.5,906.1,285.2 M1414.8,1258.2c6.6,1.5,13.6,0.8,20.2,0.2C1428.5,1257,1421.5,1257.6,1414.8,1258.2z"/>
	<path fill="#00A8F3" stroke="#00A8F3" stroke-width="0.394" d="M946.1,349.2c45.4-22.2,93.2-39,141.6-53.4
		c72.4,35.4,141.7,77.5,217.1,106.5c21.3,8.2,43,15.2,65.2,20.5c3.6,0.9,7.1,1.7,10.8,2.2c0,0.1,0.1,0.3,0.2,0.3
		c1.9,4.1,5.5,6.9,8.4,10.3c11.2,12.7,23,25,35,37c8.1,8.7,17.2,16.3,24.9,25.4c-6.5-1.2-12.4-4.3-18.4-6.9
		c-8.6-4.1-16.8-9-24.3-14.8c-17.5-12.9-35.7-25-54.8-35.2c-15-7.8-30.7-15.3-47.6-17.3c-7.9-0.7-16.6-1.5-23.6,3
		c-4.3,1.2-5,6.5-5.2,10.3c0.1,7.3-0.3,14.7,0.9,22c0.6,4.4-0.4,8.7-0.8,13c0,1.8-2,2.7-3.4,3.1c-4.1,0.8-8.3,0.2-12.5,0.2
		c-0.8-0.6-1.6-1.3-2.3-1.9c-2.1,0-4.3,0.2-6.3,0.9c-5.5,0.3-11.2-0.9-16.7,0.4c-17.5,4.8-31,18.1-48,24c3.2-12.7,0.2-26.5-6.7-37.5
		c-4.6-7.2-11.7-13.6-20.5-14.7c-8.2-1-15.9,3.2-22.3,7.9c-12.7,10.1-22,23.9-28.6,38.7c-4.6,10.5-9.4,21.1-11.6,32.4
		c-1,5.2-1.5,10.6,0.2,15.7c1.4,4.5,5.4,8.2,10.2,8.9c3.4,0.5,6.5-1.3,9.3-2.9c6.7-3.9,12.2-9.6,19.3-12.9c2.1-1.2,4.5-0.6,6.6,0.3
		c2.7,8.1,1.8,17.1-1.3,25c-1.8,4.1-6.7,4.5-10.4,5.8c-12.4,3.9-25.2,6.4-37.5,10.5c-8.5,2.7-16.6,7.5-22.2,14.6
		c-7.5,9.3-11.9,20.5-16.4,31.5c-9.4,4.1-18.7,9-26,16.3c-7.3,7.1-11.5,17.3-10.8,27.5c0,8.2,3.9,15.8,4,24.1
		c0.8,19-6.1,37.1-13.1,54.4c-9.4,22.4-20.6,44.1-29,67c-6.5,18.4-11.7,38-9.3,57.6c1.9,18,11.3,34.8,24.7,46.9
		c5.1,4.5,11.3,7.8,18,9c10.1,2,20.3-0.5,30-3.1c9.9-2.6,19.7-6.5,30-6.3c6.4,0,12.7,2.8,16.7,7.8c6.6,7.8,8.8,18,11.6,27.5
		c17.4,63.7,12.3,130.9,26.8,195.1c2.2,8.3,3.3,16.7,4.6,25.2c1.6,8.8,2.9,18,7.6,25.8c2.2,3.8,6.3,6.6,10.8,6.4
		c8.8-0.3,16.4-5.8,22.4-11.8c16-16.6,25.4-38,38.3-56.8c10.7-12.9,11.9-30.2,16.7-45.6c17.4-52.7,45-101.3,64.5-153.3
		c3.1-8.2,6.4-16.4,8.6-25c1.7-7.5,3.2-15.6-0.3-22.9c-2-4.7-6.6-7.2-10.7-9.7c-8.4-5-17.4-8.5-26.1-12.9
		c-8.4-4.2-15.5-11-19.7-19.4c-3.3-6.4-6-13.1-7.3-20.1c-0.3-3-1.1-6.8,1.6-9c4-1.4,8.1,0.1,12,1.1c10.4,3,20.8,6.9,31.8,6.7
		c8.5,0.3,17.3-2.1,23.7-7.9c4.6-4.2,5.8-11,4.3-16.8c-2.4-10.4-8.1-19.6-13.2-28.9c-2-4.2-4.7-8.4-4.4-13.1
		c0.1-2.8,3.1-4.7,5.7-4.6c11.9-0.8,23.4,3.3,34.4,7.3c7.2,2,14,5.4,19.5,10.4c12.6,11.2,20.2,26.7,26.5,42
		c8.3,20.6,13.3,42.3,19.6,63.5c2.3,6.8,4.5,14,8.8,19.8c1.8,2.4,5.2,4.6,7.9,2.3c4.3-3.2,6.1-8.6,8.4-13.2
		c5.5-13.2,9.3-27.2,15.2-40.3c2.3-5,4.8-10.2,9.1-13.8c2.4-2,5.9-2.2,8.3-0.3c6.6,4.8,11.1,11.7,15.5,18.4
		c12.2,20.3,21.8,42.1,29.8,64.4c5-5,5.7-12.4,6.4-19.1c0.6-5.3,1.3-11.6,6.4-14.6c5,1.5,8.4,7,14,6.5c2.9-0.1,4.3-3.1,5.6-5.3
		c4.1-8.5,2.8-18.4,0.3-27.2c-2.6-9.9-7.1-19.2-8.8-29.3c-0.9-5-0.4-10.8,3.5-14.6c4.4-4.2,10.5-5.9,15.4-9.5
		c14.6-9,28.1-23.1,29.3-41c0.8-17.1-9.3-32.3-20.8-44c5.4-0.1,10-3.7,12.4-8.4c3.7-7.2,4.8-15.5,4.9-23.5c0.3-13-1.5-26-4.9-38.5
		c-2.4-8.7-5.6-17.3-11-24.7c-0.1-0.6-0.3-1.9-0.4-2.6c2.6-0.1,5.2,0,7.7,1c42.7,58.4,76.2,123.2,122.5,179
		c9.9,11.8,20.1,23.3,31,34.1c4.8,5.1,4,12.8,7.2,18.7c1.6,3,5.6,3.2,8.5,2.1c1.4-1.8,1.9-4.1,1.9-6.2c-0.2-8.3-3-16.1-4.7-24.1
		c-3.1-25.3-4.4-50.7-7.4-76c-2.9-22.5-6.8-45.2-16.1-66.1c-6.6-14-13.9-27.7-21.3-41.3c-36.6-67.5-80.6-131.7-136.3-185
		c-22.6-21.6-46.9-41.5-72.9-58.8c1.2-21-8.8-40.5-20.3-57.5c131.7,84.7,232,217.1,277.8,366.9c14.4,47.1,23.5,95.9,26.3,145
		c0.9,37.5,1.4,75.3-4.7,112.5c-1.8,6.3-2.4,12.9-3.2,19.4c-1.4,10.5-4,20.8-6.3,31.1c-0.2-1.3-0.5-2.6-0.7-3.8
		c-10.7,10.8-21.6,21.3-32.1,32.3c-16.3,15-32.6,30.1-49.7,44.2c-28.5,23.3-58.1,45.2-89,65c-10,6.2-19.7,12.8-30.2,18.1
		c-5.6,3.3-11.3,6.4-16.8,9.9c-9.3,5.6-19.1,10.1-28.6,15.3c-9.5,5.5-19.8,9.5-29.6,14.5c-8.8,4.4-18,8-27,12.2
		c-19.1,7.7-37.9,15.8-57.4,22.4c-19.2,7.1-38.7,13.1-58.4,18.8c-10.5,3.3-21,6.6-31.8,9c-43.9,11.5-88.4,20.3-133.2,26.9
		c-51.6,7.7-103.7,13.4-156,12.6c-47.1-0.4-94.5-6.6-139.1-22.5c-19.9-6.5-38.6-15.9-56.8-26.1c-24.3-14.9-46.8-32.9-66-54
		c-5.4-6-11-11.8-15.6-18.5c-5-5.8-9.8-11.8-13.9-18.2c-7.9-11.2-15.6-22.6-22.5-34.4c-8.8-15.8-17.6-31.7-24.6-48.5
		c-5.8-11.4-10-23.5-14.5-35.5c-3.8-9.2-6.3-18.9-9.7-28.3c-2.8-10.8-5.7-21.5-8.7-32.2c-1.4-7.6-4-14.8-5-22.5
		c-0.7-6.1-3-11.8-3.6-17.9c-5.2-27.7-7.9-55.8-9-84c-0.9-10.8-0.9-21.8-0.3-32.6c16.5,18.3,35.4,34.2,55.3,48.6
		c7.7,5.7,15.8,10.9,23.6,16.5c9.1,6.6,16.4,15.7,20.9,26c4.2,9.3,7.9,18.9,13.1,27.8c22.6,39.8,30,85.8,50.1,126.7
		c15.5,31.7,41.2,57,56.7,88.7c3.8,7.3,6.3,15.1,8.8,22.8c6.2,19.1,12.1,38.5,21.3,56.4c4.3,7.8,9.1,15.9,16.8,21
		c4.9,3.4,11.1,3.2,16.7,2.7c6.5-0.8,11.5-6.1,13.5-12.1c3.7-11.2,2-23.1,0.3-34.5c-4.2-23.9-12.1-46.9-19.5-69.9
		c-2.2-7-5.2-14.4-2.9-21.9c4.1-16.1,14.1-29.8,23.8-43c3.3-4.4,6.6-8.8,10-13.1c2.9-3.9,6-7.8,9-11.7
		c10.5-13.8,21.2-29.2,21.6-47.3c0.6-16.8-9.2-31.6-20.7-43c-16.7-16-36.7-28-55.5-41.4c-11.5-8.3-23.1-17.1-31.1-29
		c-12.3-17.5-23.9-35.7-39.6-50.5c-7.1-6.8-15.8-12.6-25.7-13.5c-9.5-1-18.7,2.3-27,6.4c-9.4,4.8-18.1,10.7-27.5,15.3
		c-2.4,1.3-5.2,1.3-7.8,1.3c-3.9-8,2.2-16.4,1.6-24.7c-0.6-12.2-7.6-22.8-15.2-32c1.2-2.4,1.7-5.1,0.5-7.6
		c-3.4-2.5-7.7-2.6-11.7-2.1c-2.6-1.7-5.6-3.2-7.2-6c-1.3-3.6,0.4-7.3,2.4-10.3c4.6-6.4,10.7-11.5,17-16.1c4.2-2.9,8.7-6.4,14.1-6.2
		c5.2,1.2,6.8,6.8,9,10.9c2,4.3,5.3,9.2,10.7,9.2c5.4,0.6,9.5-3.8,12.9-7.4c9-9.4,13.3-22,20-32.9c12.7-21.5,27.4-43.1,48.8-57
		c19.5-11.4,39.5-21.9,57.1-36.1c10.7-8.7,20.7-18.8,26.5-31.5c6.7-14,6-30.8,0-44.9c-2.4-6.4-6.6-12.8-13.4-15
		c-7.3-2.7-15.2-1-22.6,0.3c-7.2-1.1-14,2.5-21.2,1.9c-1.8-0.1-3.5-0.2-5.3-0.3c0-0.7-0.1-2.1-0.2-2.8c19.9-4.7,40.2-6.8,60.4-9.5
		c4.7-0.3,9.6-2.5,12-6.8c4.8-7.8,4.2-17.3,5.5-26c0.5-3.2,1.2-6.6,3.5-9.1c0.9-1.2,3.6-0.9,3.3,1c1.8,14,0.7,28.1,2,42.1
		c0.3,8.2,0.9,16.4,3.1,24.4c0.7,2,1.4,4.1,2.9,5.7c3.3,1.6,7.1,0.2,9.9-1.7c11-7.2,19-17.9,28.6-26.7
		c16.4-13.5,32.6-27.3,47.8-42.2c14.5-14.3,28.4-29.3,39.7-46.3c5.7-8.8,10.8-18.5,12-29.1c1.1-9.2-4.6-18.7-13.3-21.9
		c-8.3,1.7-16.5,4.2-25,5.6c-35.5,6.8-71.6,8.5-107.1,15c-15.4,3-30.8,6.7-45.4,12.6c-13.8,5.8-24.6,16.7-33.8,28.2
		c-9.7,11.8-18.2,25.1-31,33.9c-5.8,4.3-12.8,6.4-19.5,8.6c-33.9,11.1-68.1,21.2-101.2,34.5c2.7-6.5,7.4-11.7,11.4-17.4
		c7.1-10.6,15.7-20.2,23.8-30.1c8.4-9.3,16.8-18.5,26.1-26.9c8.7-9.1,18.9-16.5,28.3-24.7c26.8-20.6,54.6-39.9,83.4-57.6
		c5-3.6,10.8-5.9,16.1-8.9C905.8,370,925.4,358.5,946.1,349.2 M1275.8,825.5c5,1.1,10.6,1.6,15.4-0.2
		C1286.1,824.8,1280.9,824.7,1275.8,825.5 M1532.5,945.8c-1.4,7.2-1.7,15.5,3,21.7c3.6,4,9.1,7,14.6,5.8c3.9-0.8,6.9-3.8,9.4-6.8
		c4.9-6.8,7.5-15.1,8-23.5c-1-15.6-9.3-29.2-15.3-43.2C1543.8,914.2,1535.9,929.3,1532.5,945.8 M1480.1,925.3
		c0.5,6.8,2.7,13.3,5.2,19.6c3.7,8.6,6.9,17.6,13.4,24.6c3.5,3.7,8,8,13.5,7.1c2,0,3.2-1.8,4.5-3.1c4.2-5.5,5.1-13,3.4-19.5
		c-2.7-8.9-10-15.5-17.7-20.3C1495.5,929.7,1488,926.2,1480.1,925.3 M1636.5,946.6c-5.3,1.2-10.6,4.6-11.7,10.2
		c-1.5,8.5,4.6,17,12.3,20.1c10.1,4,21.4,4,31.9,1.5c7-1.7,14.6-4.8,18.2-11.4c1-2.6,1.8-6,0.2-8.4c-7.3-3.5-14.7-6.6-22.4-9.2
		C1655.9,946.5,1646,944.2,1636.5,946.6 M1583,1005c-12.3,7.3-20.7,19.1-30.9,28.8c-12.9,12.5-27.1,23.7-39.5,36.8
		c-13,14-23.8,30.4-30.3,48.4c-2.5,8-4.8,16.8-2.3,25.1c1.2,3.7,2.8,8.1,7.1,9c9,2,18.1-1,26.6-3.7c7.8-2.3,13.9-8,20.8-12.1
		c2.5-1.3,4.8-3.8,7.9-3.1c2.2,4,0.8,8.5,1.2,12.8c0.4,0.5,1.1,1.5,1.5,2c7.6,2.3,15.7,0.3,23.1-2.1c12-4.3,22.4-12,31.7-20.5
		c11.8-10.5,21.6-23,32.6-34.3c9-9.8,18.4-19.6,24.5-31.6c2.9-5.4,4.6-11.6,4.6-17.8c-0.2-9-5.2-18.2-13.4-22.3
		c-6.2-3.6-13.5-3.9-20.4-3.3c-8.3-5.9-15.7-13.7-25.6-16.8C1595.4,998.9,1588.7,1001.8,1583,1005 M1254.5,1079.1
		c-4.4,10.3-8.7,21.4-6.9,32.8c0.7,4.4,4.6,7.7,8.9,8.4c6.9,0.8,14-0.5,20.3-3.6c6-2.9,10.2-9.1,10.7-15.8
		c0.8-9.9-2.8-19.4-7.2-28.1c-3.4-6.3-7-12.7-12.1-17.8C1262.6,1062.5,1258.3,1070.7,1254.5,1079.1z"/>
	<path fill="#00A8F3" stroke="#00A8F3" stroke-width="0.394" d="M1119,639c2.3-1.8,5.7-3.1,8.4-1.4c6.6,3.3,8.2,11,11.9,16.8
		c3.3,6.8,9.5,11.7,15.8,15.6c8.8,5.4,18.9,7.8,28.5,11.5c4.4,1.6,8.9,3.1,12.4,6.4c3.8,3.5,7.7,7.4,9.6,12.4c1.3,3-0.3,6.8-3.5,7.7
		c-3.5,1.7-7.4,1.7-11.2,1.3c-11.4-2.5-19.9-11-30.1-15.8c-4.1-2-9.2-3-13.5-1c-6,3.3-8.6,10.1-13.8,14.2c-4.1,3.4-10.8,0.8-13-3.6
		c-2.4-7.2-0.2-14.8,0.9-22c0.2-3.2,0.4-6.9-1.9-9.5c-1.2-1.6-3.3-1.8-4.7-2.9l-0.9-0.8c-9.3-0.7-18.6-2-27.9-2.5
		c-0.3-0.6-0.9-1.8-1.2-2.4c5.4-2.3,11.5-3.1,16.1-7C1107.9,651.3,1112.4,644,1119,639z"/>
	<path fill="#FFFEFF" stroke="#FFFEFF" stroke-width="0.394" d="M1398.5,336.9c8.1-1.3,16.9-2.5,24.6,1.1c6,6.1,4.9,15.3,6.3,23.1
		c0.6,1.6-1.1,2.6-2.2,3.2c-6.7,4.2-14.2,7.4-22.2,8c-10,0.5-20.5,1-29.7-3.6c-3.9-2.2-7.4-6.2-6.9-10.9c0.3-6,4.6-11.2,9.8-13.7
		C1384.5,340.5,1391.5,338.5,1398.5,336.9z"/>
	<path fill="#9FEAFF" stroke="#9FEAFF" stroke-width="0.394" d="M1474.6,395.6c26,17.3,50.3,37.2,72.9,58.8
		c55.6,53.3,99.7,117.5,136.3,185c7.3,13.6,14.7,27.3,21.3,41.3c9.2,20.9,13.2,43.6,16.1,66.1c3,25.3,4.3,50.7,7.4,76
		c1.6,8,4.5,15.9,4.7,24.1c-0.1,2.2-0.5,4.5-1.9,6.2c-2.8,1.1-6.9,0.9-8.5-2.1c-3.3-5.9-2.4-13.6-7.2-18.7
		c-10.9-10.8-21.1-22.4-31-34.1c-46.3-55.8-79.8-120.6-122.5-179c-0.2-0.4-0.7-1.1-0.9-1.4c10.5,1.4,21.2,3.3,31.8,2.3
		c3.4-0.3,8.6-1.8,7.9-6.2c-1.2-6.4-7-10.3-11.8-14.1c-6.8-5.6-8.1-14.9-9.4-23c-1.9-12.6-1.9-26.4-9.1-37.5
		c-4.6-7.3-13.1-10.1-20.6-13.3c-32.2-13.3-67.5-16.2-100.3-27.7l-0.4-0.4c-7.7-9-16.8-16.7-24.9-25.4c-12-12-23.7-24.3-35-37
		c-2.8-3.4-6.5-6.3-8.4-10.3c21.2,4,43.4,8.9,64.9,3.4c8-2.1,15.7-6.2,21-12.7C1471.6,410.2,1474,402.9,1474.6,395.6z"/>
	<path fill="#000100" stroke="#000100" stroke-width="0.394" d="M1034.9,413.8c8.4-1.4,16.6-3.9,25-5.6c8.7,3.1,14.3,12.7,13.3,21.9
		c-1.2,10.6-6.3,20.3-12,29.1c-11.3,17-25.2,32-39.7,46.3c-15.2,14.9-31.3,28.8-47.8,42.2c-9.5,8.9-17.5,19.5-28.6,26.7
		c-2.8,1.9-6.7,3.2-9.9,1.7c-1.5-1.6-2.2-3.7-2.9-5.7c-2.2-7.9-2.8-16.2-3.1-24.4c-1.3-14-0.3-28.1-2-42.1c0.3-1.9-2.4-2.2-3.3-1
		c-2.3,2.4-3,5.9-3.5,9.1c-1.3,8.7-0.7,18.2-5.5,26c-2.4,4.3-7.3,6.5-12,6.8c-20.2,2.7-40.6,4.8-60.4,9.5c-1.6,0.3-3,1.2-3.9,2.6
		c10,3.2,20.6,0.7,30.5-1.5c7.4-1.3,15.3-3,22.6-0.3c6.7,2.3,10.9,8.7,13.4,15c6,14.1,6.7,30.9,0,44.9
		c-5.8,12.7-15.8,22.8-26.5,31.5c-17.6,14.2-37.7,24.7-57.1,36.1c-21.4,13.8-36,35.4-48.8,57c-6.7,10.9-11,23.5-20,32.9
		c-3.4,3.5-7.5,8-12.9,7.4c-5.4,0.1-8.7-4.8-10.7-9.2c-2.2-4.1-3.9-9.8-9-10.9c-5.4-0.1-9.8,3.4-14.1,6.2c-6.3,4.7-12.4,9.8-17,16.1
		c-2,2.9-3.8,6.7-2.4,10.3c1.6,2.8,4.5,4.3,7.2,6c-4.8,1.6-9,4.8-13.9,6.1c-4.4,1.4-9.4-2.9-8.7-7.4c0.5-6.1,4.2-11.2,7.5-16.1
		c5.6-7.8,12-14.8,18-22.3c6.3-7.6,15-14.7,25.4-14.5c4.8-0.5,8.5,3.1,12,6c5.6,4.7,9.8,10.9,16.1,14.7c1.5-1.4,2.9-2.9,4-4.7
		c7.8-12.6,12.3-27,20.6-39.3c9.8-15.4,23.2-28.4,37.8-39.2c8.1-6.1,16.6-11.8,25.7-16.4c9.4-5.3,19.6-9.9,26.7-18.2
		c4.1-4.8,4.9-12,1.9-17.6c-2.2-4.9-5.9-8.9-8.1-13.7c-1.8-3.8,3-6.6,6.3-6.4c9,0,15.7,7.5,24.3,9.2c2.7,0.5,5.8-0.5,7.1-3
		c3-5.2,3.2-11.5,3.4-17.4c0.1-9.3,0.1-19.1-4.1-27.7c-2.4-5.1-8.1-8.5-13.7-7.5c-8.2,1.1-15.5,5.6-22.4,10
		c-9,5.9-17.3,12.8-26.3,18.7c-3.1,1.7-6.6,4.3-10.2,2.6c-6.4-2.3-8.6-9.8-8.5-15.9c0.1-11.4,4.3-22.6,10.6-31.9
		c3.3-4.6,7.3-8.9,12.6-11.2c3.6-1.4,7.5-1.7,11.2-3c7.5-2.6,14.3-6.8,21.2-10.7c2.8-1.6,5.8-3.5,9.2-2.9c0.2,4.8-1,9.8,0.6,14.5
		c2.4,2.9,6.7,2.2,9.9,1.6c9.5-2,18.5-7.3,24.4-15.1c3-4,5-9.4,3.2-14.3c-1.1-3.9-4.3-6.6-7.4-9c1.1-5.1,5.5-10,3.3-15.4
		c-4.4-1.4-9-1.4-13.6-1.6c7.7-7.7,18.9-8.8,29.2-9.7c3.7,0.2,7.3,1.3,11,1.1c3.1,0.1,7-0.4,9.1,2.3c2.4,3.9,1.5,8.7,0.5,12.9
		c-4.5,17.5-11.1,34.4-14.2,52.2c-0.6,4.2-1.5,8.9,0.6,12.8c2,2.9,6.1,1.3,8.6-0.1c9.3-5.7,16.6-14.1,24.3-21.8
		c26.1-27.5,49-58.8,80.7-80.4c5.1-3.8,9.1-8.9,12.6-14.2c2.8-4.5,5.5-9.6,4.5-15.1c-0.9-3.3-4.8-3.7-7.6-3.7
		c-12.3,0-24.1,3.7-36.1,5.9c-40.6,5.3-81.4,11.6-120.1,25.3c-8.4,3-16.6,6.5-24.5,10.5c-7.2,3.8-14.6,7.7-20.3,13.7
		c-9.5,9-10.9,23.5-21.3,31.8c-11,8.7-23.6,15-36.3,20.7c-28.4,12.4-58.9,18.8-88.6,27.5c-15.9,5.9-30.6,14.4-45.2,22.8
		c-11.2,6.5-22.2,13.5-32.6,21.3c-4.1,3.2-8.2,6.4-11.4,10.5c-1.3,1.4-1.3,3.4-1.4,5.2c11.8,3.3,24.5,2.7,36,7.2
		c3.1,1.3,6.2,4.6,4.9,8.2c-2.7,8.2-9.2,14.2-14.9,20.4c0.5-3.3,1.1-6.7,0.2-10c-1.4-4.4-5.1-7.6-9.3-9.3
		c-8.1-3.2-16.9-2.8-25.4-4.2c-4.8-0.9-10.5-2.8-12.1-7.9c-0.5-5.9,3.4-11,7-15.3c8.5-9.7,19.2-17.2,30.1-23.9
		c18.7-11.5,38.6-21.1,59-29.3c33.1-13.3,67.3-23.4,101.2-34.5c6.8-2.2,13.8-4.3,19.5-8.6c12.8-8.8,21.3-22.1,31-33.9
		c9.2-11.5,20-22.3,33.8-28.2c14.6-5.9,30-9.6,45.4-12.6C963.3,422.3,999.5,420.6,1034.9,413.8z"/>
	<path fill="#000100" stroke="#000100" stroke-width="0.394" d="M1280.6,426.7c7-4.5,15.7-3.6,23.6-3c17,2.1,32.6,9.5,47.6,17.3
		c19.2,10.3,37.3,22.3,54.8,35.2c7.5,5.8,15.7,10.7,24.3,14.8c6,2.6,11.9,5.7,18.4,6.9l0.4,0.4c32.8,11.5,68.1,14.5,100.3,27.7
		c7.5,3.2,16,6.1,20.6,13.3c7.2,11.1,7.2,24.9,9.1,37.5c1.3,8.2,2.6,17.4,9.4,23c4.8,3.8,10.6,7.6,11.8,14.1
		c0.7,4.4-4.5,5.9-7.9,6.2c-10.7,1-21.3-0.9-31.8-2.3c-3.4-0.7-6.9-1.2-10.4-1.1c1.3,1.4,2.7,2.7,4,4.1c5.3,7.3,8.6,16,11,24.7
		c3.4,12.5,5.2,25.5,4.9,38.5c-0.2,8-1.2,16.3-4.9,23.5c-2.4,4.7-7,8.3-12.4,8.4c11.5,11.8,21.6,26.9,20.8,44
		c-1.2,17.9-14.7,32-29.3,41c-4.9,3.5-11,5.2-15.4,9.5c-3.9,3.7-4.3,9.6-3.5,14.6c1.7,10.1,6.2,19.5,8.8,29.3
		c2.5,8.8,3.8,18.7-0.3,27.2c-1.3,2.2-2.7,5.2-5.6,5.3c-5.6,0.5-9-5-14-6.5c-5,3-5.8,9.3-6.4,14.6c-0.7,6.7-1.5,14.1-6.4,19.1
		c-8-22.3-17.6-44.1-29.8-64.4c-4.4-6.7-8.9-13.6-15.5-18.4c-2.5-1.9-6-1.7-8.3,0.3c-4.3,3.6-6.8,8.8-9.1,13.8
		c-5.9,13.1-9.6,27-15.2,40.3c-2.3,4.7-4.1,10-8.4,13.2c-2.8,2.2-6.2,0-7.9-2.3c-4.3-5.9-6.5-13-8.8-19.8
		c-6.3-21.2-11.3-42.9-19.6-63.5c-6.3-15.3-13.9-30.8-26.5-42c-5.5-5-12.3-8.4-19.5-10.4c-11.1-4-22.5-8.1-34.4-7.3
		c-2.6-0.1-5.6,1.8-5.7,4.6c-0.3,4.8,2.5,9,4.4,13.1c5,9.3,10.8,18.5,13.2,28.9c1.5,5.8,0.3,12.7-4.3,16.8
		c-6.3,5.8-15.2,8.2-23.7,7.9c-11,0.2-21.4-3.7-31.8-6.7c-3.9-1-8.1-2.5-12-1.1c-2.7,2.2-1.9,6-1.6,9c1.3,7,4.1,13.8,7.3,20.1
		c4.2,8.4,11.3,15.3,19.7,19.4c8.6,4.4,17.7,7.9,26.1,12.9c4.1,2.5,8.8,5,10.7,9.7c3.4,7.2,1.9,15.4,0.3,22.9
		c-2.2,8.5-5.5,16.7-8.6,25c-19.5,51.9-47.1,100.5-64.5,153.3c-4.8,15.4-6,32.7-16.7,45.6c-12.9,18.8-22.3,40.2-38.3,56.8
		c-6,6-13.6,11.5-22.4,11.8c-4.5,0.2-8.6-2.6-10.8-6.4c-4.7-7.8-5.9-17-7.6-25.8c-1.2-8.4-2.4-16.9-4.6-25.2
		c-14.5-64.2-9.4-131.4-26.8-195.1c-2.9-9.5-5-19.8-11.6-27.5c-4-5-10.3-7.8-16.7-7.8c-10.3-0.1-20.1,3.7-30,6.3
		c-9.7,2.6-19.9,5-30,3.1c-6.7-1.2-12.9-4.5-18-9c-13.3-12.1-22.8-28.8-24.7-46.9c-2.5-19.7,2.7-39.3,9.3-57.6
		c8.4-22.9,19.5-44.6,29-67c7-17.3,13.9-35.4,13.1-54.4c-0.1-8.2-4-15.8-4-24.1c-0.7-10.2,3.5-20.5,10.8-27.5
		c7.3-7.3,16.6-12.2,26-16.3c4.5-11,8.9-22.2,16.4-31.5c5.6-7.1,13.6-11.9,22.2-14.6c12.3-4.1,25.1-6.6,37.5-10.5
		c3.7-1.3,8.6-1.7,10.4-5.8c3.1-7.8,4-16.9,1.3-25c-2.1-0.8-4.5-1.4-6.6-0.3c-7.1,3.3-12.6,9-19.3,12.9c-2.8,1.6-5.9,3.3-9.3,2.9
		c-4.7-0.7-8.8-4.4-10.2-8.9c-1.7-5.1-1.2-10.5-0.2-15.7c2.2-11.3,7-21.9,11.6-32.4c6.6-14.7,15.9-28.5,28.6-38.7
		c6.4-4.7,14.1-8.9,22.3-7.9c8.8,1.1,15.9,7.5,20.5,14.7c6.9,11,9.9,24.7,6.7,37.5c17-5.9,30.5-19.2,48-24
		c5.5-1.3,11.1-0.2,16.7-0.4c-5.2,5.6-11.8,9.5-18.6,13c-11.6,6-23.8,10.8-35.7,16.4c-4,1.8-7.6,4.2-11.8,5.4
		c-2.2-8.9-1.8-18.1-2.9-27.2c-1-7.5-4.4-14.9-10.5-19.5c-5.6-4-13.1-2.6-18.8,0.3c-10.4,5.3-18.8,13.7-26.5,22.4
		c-5.6,6.9-11.8,13.8-14.3,22.6c-2,6.5-4.8,13.1-4,20.1c0.2,3,3.4,4.3,6,3.3c7.2-2.1,13.3-6.8,19.9-10.3c3.4-1.7,7.1-4,11.1-3.5
		c2.4,0.5,2.8,3.1,3.6,5c3.2,9.3,7.8,18.6,7.3,28.7c-0.2,5.8-4.1,10.9-9.1,13.6c-16.7,9.4-36.4,10.2-54,17
		c-6.5,2.4-13.4,5.8-16.4,12.4c-3.7,8.1-2.5,17.6-6.6,25.6c-2.2,4.9-6.4,8.8-11.5,10.5c-7.2,2.7-15.2,4.4-20.9,10
		c-6.3,6.5-10.4,15.7-9,24.9c1.2,8.6,6,16.1,10.1,23.5c2.2,4.2,5.3,8.4,4.5,13.5c-1,9.1-5.6,17.3-9.8,25.2
		c-7.5,14.1-17.8,26.6-24.6,41.2c-10.4,21.4-18.1,44.2-22.1,67.7c-2.8,17.9-3.7,37.1,3.3,54.2c6.1,15.2,21.7,26.6,38.3,26
		c13.1-0.1,25.2-5.7,37.4-9.9c6.9-2.3,14.3-4.5,21.5-2.5c6,1.8,10.2,7.1,12.8,12.5c4.3,9.3,6.2,19.5,7.6,29.6
		c8.4,57.1,28.5,112.1,32.7,169.9c1.4,12.3-0.1,24.9,2.4,37.1c1.9,9.7,4.3,19.6,9.3,28.3c2.1,3.6,5.5,7.7,10.2,7.2
		c4.4-0.6,7.2-4.6,10.1-7.5c23.5-25,38-56.9,49.3-88.9c13.8-38.8,23.4-79.1,40.2-116.8c4.7-10.4,9.8-20.5,15.9-30.1
		c8.1-11.9,13.9-25.3,17.6-39.2c1.4-5.8,2.4-12,1.2-18c-0.8-4.4-4.5-8.3-9.1-8.5c-11-0.9-22.1,1.9-33.1,0.2
		c-3.3-0.6-7.2-1.7-8.5-5.1c-3.2-7.4-4.9-15.4-7-23.2c-5.5-23-10.8-46.1-15.4-69.4c3.9,5,8.9,9,14,12.8c9,6.4,18.8,12,29.2,15.9
		c7.6,2.7,15.7,4.9,23.7,3.5c5.5-0.8,10.5-4.7,12.5-10c4.3-10.6,1.5-23.2-6.2-31.6c-6.9-8.2-16-14.1-22.8-22.3
		c-1.5-1.9-3-4.1-2.9-6.6c1.5-3.6,6.1-3.6,9.4-4c13.1-0.2,26,3,38.9,4.6c17.8,2.5,34.9,11,46.6,24.8c15.9,18.5,23,42.6,29.1,65.7
		c3.2,11.2,4.9,22.9,9.7,33.6c1.4,2.7,3,6.4,6.5,6.7c3-0.3,4.7-3.4,6.1-5.7c5.1-9.6,7.7-20.3,11.2-30.5c2.8-8.4,5.3-17.1,10.8-24.2
		c2.4-3.1,5.8-6.3,10.1-6c5.7,0,9.9,4.5,13.4,8.5c8.8,10.9,14.7,23.7,20.4,36.3c4.9,11.1,9.4,22.4,13.9,33.7
		c2.2,5.3,4.2,10.8,7.3,15.7c-0.7-4.8-2.5-9.4-2.9-14.3c-1.5-10.8,0.2-21.7,0.1-32.5l0.2-0.3c5.9,5.9,12,11.8,19.2,16.2
		c2.3,1.5,5.2,2.2,7.8,1c2.1-5.7,0.2-11.8-1-17.4c-3.3-12.8-8-25.1-11.4-37.9c-0.9-3.9-2.2-8.1-0.8-12c2.2-7,8.1-11.9,14-15.9
		c9.2-6.5,19.7-11.3,27.7-19.4c5.2-5.2,8.8-12.3,8.7-19.7c0.2-6.1-2.5-11.9-6-16.7c-5.4-7.2-12.6-12.8-17.6-20.4
		c-2.1-3.6-4.3-7.8-3.3-12c3.6-3.3,8.9-2.2,13.4-2.6c3.8-0.3,9,0.3,11.4-3.4c0.3-5.5-4.6-9.4-8-13.2c2.2-12.2,6.3-24.3,4.9-36.8
		c-0.9-9.1-6.3-17.4-13.8-22.5c-8.3-5.9-18.5-7.8-27.3-12.7c-3.8-2.1-7.3-5-9.2-9c-3.3-6.1-3-13.3-1.8-19.9c0.8-3.9,2.6-8.4,6.9-9.5
		c5.2-1.1,10.1,1.5,14.5,4c16.7,10.1,29.9,25.1,46,36c5.1,3.8,12.1,3.2,17.8,1c2.9-1.4,2-5.1,0.3-7.2c-5.6-7.7-13.4-13.3-19.4-20.6
		c-2.9-3.5-6.3-7.6-6-12.5c1.8-5.2,4.6-10.4,3.6-16.1c-1.1-8.5-7.9-14.8-14.8-19.1c-12.2-7.6-26.1-12-39.8-16.1
		c-19.8-5.9-40-10.4-59.8-16.4c-10-3.1-20-6.4-29.3-11.5c-32.2-19-63.5-39.8-97.5-55.6c-9.5-4.1-19.3-8.4-29.7-9.6
		c-5-0.6-11.3,0.8-13.4,5.9c-3.1,7.1-1.7,15.1-1.2,22.5c0.5,7.9,1.8,16.3-1.6,23.6c-2.4,3.7-6,8-10.8,7.5c-6.1-1.7-9-8-13.4-12
		c4.1,0.3,8.4,0.7,12.5,0c1.9-0.4,3.5-1.9,4-3.8c1.7-11.8-1.3-23.5-0.7-35.3C1276.4,433.2,1278.3,429.7,1280.6,426.7z"/>
	<path fill="#000100" stroke="#000100" stroke-width="0.394" d="M1257.6,620.8c1.4,1.3,1.7,3.4,2.5,5.1c4.9,11.5,12,22,16.2,33.8
		c2.2,6.1,3.4,12.9,1.4,19.2c-0.7,2.5-3.3,4.7-5.9,3.5c-5.6-2.4-9.7-7.6-12-13.1C1254.5,653.7,1255.9,636.9,1257.6,620.8z"/>
	<path fill="#000100" stroke="#000100" stroke-width="0.394" d="M1125.4,623.5c3.9-1.2,7.7,1.2,9.8,4.3c5.4,7.4,8.2,16.2,13.1,23.9
		c3.7,6.1,8.7,12.3,16,14c4.2,1.2,8.6-0.7,12.8,0.7c8.9,2.5,16.4,8.3,23,14.6c6,6.1,11.8,13.3,13.2,22c1,5.1-2,10.3-6.4,12.8
		c-5.2,3-11.4,5-17.4,3.5c-11.6-3.3-15.9-16.8-27.2-20.8c-3.6-1.5-8.3-1.5-11.1,1.5c-5.5,5.7-5.8,14.3-10.7,20.4
		c-2.7,3.5-7.8,2.4-10.9,0.2c-5.4-3.7-10.5-8.1-13.8-13.7c-3.3-5.5-1.4-12.1-3-18.1c-0.7-2.6-1.5-5.4-3.3-7.5c-3.9-2.8-9-3.2-13.6-4
		c-7.9-1.4-16.1-1.6-23.6-4.8c-2.6-1-5-3.8-3.9-6.8c2.1-4.8,6.4-8,10.2-11.3c4.2-3,8.3-6.6,13.3-8.1c4.3-1.4,8.8-1.9,13-3.4
		c3-0.8,4-4.1,5.9-6.3C1114.8,631.7,1119,625.9,1125.4,623.5 M1119,639c-6.6,5-11,12.3-18,16.9c-4.7,3.8-10.8,4.6-16.1,7l-0.3-0.6
		c-0.7,0.9-1.5,1.8-2.2,2.8c4.3,1.7,9,1.8,13.6,2.2c6.3,0.2,12.6,0.9,18.9,1.3c1.4,1.1,3.5,1.3,4.7,2.9c2.3,2.6,2.1,6.3,1.9,9.5
		c-1.1,7.2-3.3,14.8-0.9,22c2.2,4.5,8.9,7.1,13,3.6c5.3-4.1,7.8-10.9,13.8-14.2c4.3-2,9.4-1,13.5,1c10.3,4.8,18.8,13.3,30.1,15.8
		c3.8,0.4,7.7,0.4,11.2-1.3c3.1-0.9,4.8-4.8,3.5-7.7c-1.9-5-5.8-8.9-9.6-12.4c-3.5-3.2-8.1-4.7-12.4-6.4c-9.6-3.6-19.7-6-28.5-11.5
		c-6.3-3.9-12.5-8.8-15.8-15.6c-3.7-5.7-5.3-13.5-11.9-16.8C1124.7,635.9,1121.3,637.3,1119,639z"/>
	<path fill="#000100" stroke="#000100" stroke-width="0.394" d="M1192.4,627.6c4.3-2.5,9.7-2.8,14.5-1.8c8.7,1.9,16.8,7,21.7,14.5
		c1.7,3,3.2,6.3,2.8,9.9c-4.2,1.2-9.1,2-12.7-1.1c-4.5-4-9.5-8.5-15.9-8.6c-5.5,0.4-10.4,4-16,3.3c-1.4,0-2.6-1.4-2.4-2.8
		C1185,635.7,1187.8,630.4,1192.4,627.6z"/>
	<path fill="#000100" stroke="#000100" stroke-width="0.394" d="M610,685.9c3.2-3.8,7.3-6.6,10.4-10.5l-0.6,1.2
		c-14,19.1-25.5,41.3-26.3,65.4c-1.1,19.5,5.2,38.5,14.2,55.5c12.9,23.9,30.7,44.8,50.5,63.3c19.5,17.6,41,34,66,43
		c5.3,2.1,8.6,7.1,11.2,11.9c5.9,12,8,25.3,10.8,38.3c8.3,36.3,23.4,70.7,42.2,102.8c19.5,33.2,41.9,64.6,60.8,98.2
		c3.6,6.7,5.6,14.1,7.7,21.3c5.6,20.4,9.4,41.3,17,61c3.4,8.5,7.4,17.3,14.7,23.1c3.2,2.4,7.4,4.6,11.5,3.5c4.1-1.3,5.1-6.2,5.4-9.9
		c0.6-10.3-1.4-20.5-3.8-30.5c-3.8-17.3-9-34.3-13.6-51.4c-2-7.7-4.3-15.3-5.2-23.2c-0.3-6.8,1.5-13.5,4.1-19.7
		c5.3-12.3,13.5-23,21.7-33.5c4.8-5.8,9.3-12,14.3-17.6c-3.4,4.3-6.7,8.7-10,13.1c-9.7,13.2-19.7,26.9-23.8,43
		c-2.3,7.4,0.7,14.8,2.9,21.9c7.4,23,15.3,46,19.5,69.9c1.7,11.4,3.4,23.3-0.3,34.5c-1.9,6-7,11.3-13.5,12.1
		c-5.6,0.5-11.9,0.7-16.7-2.7c-7.6-5-12.4-13.1-16.8-21c-9.2-17.9-15.1-37.3-21.3-56.4c-2.5-7.8-5-15.6-8.8-22.8
		c-15.5-31.7-41.3-57-56.7-88.7c-20-40.9-27.4-87-50.1-126.7c-5.1-8.9-8.9-18.5-13.1-27.8c-4.5-10.3-11.8-19.4-20.9-26
		c-7.8-5.6-15.9-10.7-23.6-16.5c-19.9-14.4-38.8-30.3-55.3-48.6c-12.7-14.5-24.1-30.7-29.6-49.3c-3.6-12-3.1-24.7-2.8-37
		C584.2,725.7,595.2,703.8,610,685.9z"/>
	<path fill="#000100" stroke="#000100" stroke-width="0.394" d="M1636.5,946.6c9.5-2.5,19.5-0.1,28.6,2.8c7.6,2.6,15.1,5.8,22.4,9.2
		c1.6,2.4,0.8,5.8-0.2,8.4c-3.6,6.7-11.2,9.7-18.2,11.4c-10.5,2.5-21.8,2.5-31.9-1.5c-7.8-3.1-13.9-11.6-12.3-20.1
		C1625.9,951.2,1631.2,947.9,1636.5,946.6 M1632.6,951.5c-1.9,2.7-1,6.4,1.2,8.7c4.1,4.5,10.4,6.2,16.3,7.2c11.4,1.2,23,0,34.1-2.9
		c-4.6-4.1-10.2-7-15.6-9.9c-8.2-4.1-17.2-7.7-26.6-7.2C1638.5,947.6,1634.7,948.6,1632.6,951.5z"/>
	<path fill="#000100" stroke="#000100" stroke-width="0.394" d="M1583,1005c5.7-3.2,12.4-6.1,19.1-4.3c9.9,3.2,17.3,10.9,25.6,16.8
		c6.9-0.6,14.2-0.4,20.4,3.3c8.2,4.1,13.2,13.2,13.4,22.3c0,6.2-1.7,12.3-4.6,17.8c-6,12-15.5,21.8-24.5,31.6
		c-11,11.3-20.8,23.7-32.6,34.3c-9.3,8.5-19.8,16.2-31.7,20.5c-7.4,2.3-15.5,4.4-23.1,2.1c-0.4-0.5-1.1-1.5-1.5-2
		c-0.4-4.3,1-8.8-1.2-12.8c-3.1-0.7-5.4,1.7-7.9,3.1c-6.9,4-13,9.8-20.8,12.1c-8.5,2.7-17.6,5.6-26.6,3.7c-4.3-0.9-6-5.3-7.1-9
		c-2.5-8.3-0.2-17.1,2.3-25.1c6.6-18,17.3-34.4,30.3-48.4c12.4-13.1,26.6-24.3,39.5-36.8C1562.3,1024.2,1570.7,1012.3,1583,1005
		 M1601.9,1006.9c-32.1,14.9-59.6,39-80.2,67.7c-10.9,15.2-20.1,31.7-25.9,49.4c-1.6,5.5-3.5,11.4-1.9,17.2c2,4.7,8.2,3.2,12.2,2.9
		c18.6-4.1,32.7-17.9,49-26.9c-1.7,7.1-4.9,14.7-2.1,21.9c1.9,3.9,7,3.7,10.5,2.5c7.9-2.7,14.8-7.8,21.3-12.8
		c14.5-11.7,27.4-25.4,38.8-40.2c9.1-12.2,18-25.2,22.1-40c2.2-7.2,3-16.2-1.8-22.5c-5.4-4.1-12.7-2.3-19-3.6
		c-8.4-2.6-14.8-9.5-18.3-17.4C1604.9,1005.6,1603.3,1006.2,1601.9,1006.9z"/>
	<path fill="#32DE34" stroke="#32DE34" stroke-width="0.394" d="M1022.9,421.4c12-2.2,23.9-5.9,36.1-5.9c2.8,0.1,6.7,0.5,7.6,3.7
		c1,5.4-1.7,10.6-4.5,15.1c-3.5,5.3-7.5,10.4-12.6,14.2c-31.7,21.6-54.5,52.9-80.7,80.4c-7.6,7.7-14.9,16-24.3,21.8
		c-2.5,1.4-6.5,3.1-8.6,0.1c-2.1-3.9-1.3-8.6-0.6-12.8c3.1-17.8,9.7-34.8,14.2-52.2c1-4.2,2-9-0.5-12.9c-2.1-2.8-6-2.3-9.1-2.3
		c-3.7,0.3-7.3-0.9-11-1.1c-10.2,0.9-21.5,2-29.2,9.7c4.5,0.2,9.2,0.2,13.6,1.6c2.1,5.4-2.2,10.3-3.3,15.4c3.1,2.4,6.3,5.1,7.4,9
		c1.8,4.9-0.2,10.3-3.2,14.3c-5.9,7.8-14.9,13-24.4,15.1c-3.3,0.5-7.5,1.3-9.9-1.6c-1.6-4.6-0.5-9.7-0.6-14.5
		c-3.4-0.7-6.4,1.3-9.2,2.9c-6.8,4-13.7,8.1-21.2,10.7c-3.6,1.3-7.6,1.6-11.2,3c-5.3,2.3-9.3,6.7-12.6,11.2
		c-6.4,9.4-10.5,20.5-10.6,31.9c-0.1,6.2,2.1,13.7,8.5,15.9c3.6,1.8,7.2-0.9,10.2-2.6c9-5.8,17.3-12.8,26.3-18.7
		c6.8-4.4,14.1-8.9,22.4-10c5.6-0.9,11.3,2.5,13.7,7.5c4.1,8.6,4.1,18.4,4.1,27.7c-0.2,5.9-0.4,12.1-3.4,17.4
		c-1.3,2.5-4.5,3.5-7.1,3c-8.6-1.7-15.3-9.2-24.3-9.2c-3.3-0.2-8.2,2.6-6.3,6.4c2.2,4.8,6,8.8,8.1,13.7c3,5.6,2.3,12.8-1.9,17.6
		c-7.1,8.4-17.3,13-26.7,18.2c-9.1,4.6-17.6,10.3-25.7,16.4c-14.6,10.9-27.9,23.8-37.8,39.2c-8.3,12.4-12.8,26.7-20.6,39.3
		c-1.1,1.8-2.6,3.2-4,4.7c-6.3-3.8-10.5-10-16.1-14.7c-3.4-2.8-7.1-6.5-12-6c-10.4-0.2-19.1,6.9-25.4,14.5c-6,7.5-12.4,14.5-18,22.3
		c-3.3,4.9-7,10-7.5,16.1c-0.7,4.6,4.3,8.8,8.7,7.4c4.9-1.3,9.1-4.4,13.9-6.1c4-0.4,8.3-0.4,11.7,2.1c1.2,2.5,0.8,5.2-0.5,7.6
		c-3.3,4.9-7.6,9.1-10.9,14c-2.2,3.1-2.5,7.4-0.5,10.6c6.4,0,11.7-5.2,18.2-4.4c2.7,0.3,3.7,3.5,3.1,5.8c-2.4,10.7-9.1,20-10.5,31
		c-0.5,3,0.5,5.9,2.2,8.3c11.6-1.8,22.4-6.5,33.4-10.2c7.9-2.6,15.7-6,23.9-7.5c10.1-1.2,20.9-0.9,30,4.1c7.5,3.8,13.2,10.3,18,17.1
		c7.8,11.2,14,23.6,23.3,33.8c27.2,30.9,69.1,42.9,97.7,72.2c7.6,7.6,14.6,16.4,17.1,27.1c2.6,10,0.7,20.6-3.1,30
		c-3.7,9.5-9.6,17.8-15,26.3c-3,3.9-6.1,7.7-9,11.7c-5.1,5.6-9.5,11.8-14.3,17.6c-8.2,10.5-16.4,21.2-21.7,33.5
		c-2.6,6.2-4.4,12.9-4.1,19.7c0.9,7.9,3.2,15.6,5.2,23.2c4.6,17.1,9.9,34.1,13.6,51.4c-0.2,2.7-0.7,5.4,0.2,8
		c1.5,4.4,1.5,9.1,2.1,13.7c0.6,4.6,0.5,9.4-1,13.8c-1,2.2-3.2,5-6,4.2c-2.8-1-5.4-2.7-8.5-2.7c-7.3-5.8-11.3-14.6-14.7-23.1
		c-7.6-19.8-11.4-40.7-17-61c-2.1-7.3-4.1-14.6-7.7-21.3c-18.9-33.5-41.3-64.9-60.8-98.2c-18.8-32-33.9-66.5-42.2-102.8
		c-2.7-13-4.8-26.3-10.8-38.3c-2.6-4.8-6-9.8-11.2-11.9c-25-8.9-46.4-25.4-66-43c-19.8-18.5-37.6-39.4-50.5-63.3
		c-9.1-17-15.4-36-14.2-55.5c0.8-24.1,12.3-46.3,26.3-65.4c3.2-3.8,6.3-7.7,9.6-11.4c5.5-6.7,12.2-12.3,17.9-18.9
		c5.6-6.2,12.2-12.3,14.9-20.4c1.4-3.6-1.7-6.9-4.9-8.2c-11.5-4.5-24.2-3.9-36-7.2c0.1-1.8,0.1-3.8,1.4-5.2
		c3.2-4.1,7.3-7.4,11.4-10.5c10.4-7.8,21.4-14.8,32.6-21.3c14.6-8.4,29.3-16.9,45.2-22.8c29.7-8.7,60.2-15.1,88.6-27.5
		c12.7-5.7,25.3-12,36.3-20.7c10.4-8.3,11.8-22.8,21.3-31.8c5.7-6,13.1-9.9,20.3-13.7c8-4,16.2-7.5,24.5-10.5
		C941.5,433,982.4,426.7,1022.9,421.4 M747.3,572.5c-10.3,1.4-19.7,6.3-28.7,11.4c-5.5,3.8-11.8,8.8-12.3,16.1
		c-1.1,10.4,8,18.1,9.1,28c0.6,4.7-1.5,9.4-4.7,12.8c-11.3,11.3-25.9,18.2-38,28.4c-3.6,2.1-7,4.5-10,7.4
		c-4.5,4.2-9.8,7.7-13.5,12.8c-3.7,5-7.7,9.9-9.8,15.8c-3.1,9-5.5,18.3-6.2,27.8c-1.3,6-0.6,12.1,0.8,17.9c1.1,3.5,4.5,6.4,8.3,5.5
		c6.7-1.6,11.9-6.8,16.3-11.8c2.9-3.4,7.2-5.9,8.5-10.4c6.4-10.3,12.6-20.6,19.7-30.4c6.3-8,14.2-16.6,25.1-17.2
		c7.6,0.6,14.2,4.5,21.3,6.8c4.2,2.4,9.1,2.2,13.7,2.1c5.4,0.2,10-3.3,14-6.6c4.5-5.1,9-11,9.4-18c0.3-9,0.2-18-0.1-27
		c-2.3-24.4-5.3-48.8-10.8-72.7C755.4,571.3,751.3,572,747.3,572.5 M773.3,908c-1,3.2,0.9,6.5,1.1,9.7c7.7,34.6,17.6,68.8,31,101.7
		c6.2,14.4,12.7,28.7,21.5,41.8c5.9,8.2,12.6,16.4,21.8,21.2c4.6,2.3,10.3,4.1,15.2,1.6c3.3-2.7,4.7-7,6-11
		c3.7-17.9,20.3-29.6,24.7-47.3c0.8-5.9,0-12-3.2-17c-5.8-9.3-14.7-15.9-22.8-23.1c-9.3-7.8-19.2-14.8-28.7-22.4
		c-11.6-9.9-24.1-18.5-36-28c-5-4.6-10-9.2-15.3-13.6C783.3,917.2,778.9,911.8,773.3,908z"/>
	<path fill="#32DE34" stroke="#32DE34" stroke-width="0.394" d="M1287.6,434.6c2.1-5.1,8.4-6.5,13.4-5.9c10.4,1.2,20.2,5.5,29.7,9.6
		c34,15.7,65.3,36.5,97.5,55.6c9.2,5,19.2,8.4,29.3,11.5c19.8,6,40,10.6,59.8,16.4c13.7,4.1,27.6,8.5,39.8,16.1
		c7,4.3,13.8,10.6,14.8,19.1c1,5.7-1.8,10.9-3.6,16.1c-0.3,4.9,3.1,9,6,12.5c6,7.3,13.8,12.9,19.4,20.6c1.6,2.1,2.6,5.8-0.3,7.2
		c-5.7,2.2-12.6,2.8-17.8-1c-16.2-10.9-29.3-25.9-46-36c-4.4-2.5-9.3-5.1-14.5-4c-4.3,1.1-6.1,5.6-6.9,9.5
		c-1.2,6.6-1.5,13.8,1.8,19.9c2,3.9,5.4,6.9,9.2,9c8.8,4.9,19,6.8,27.3,12.7c7.5,5.2,12.8,13.5,13.8,22.5
		c1.5,12.5-2.7,24.7-4.9,36.8c3.4,3.8,8.3,7.7,8,13.2c-2.4,3.7-7.6,3.1-11.4,3.4c-4.4,0.4-9.8-0.7-13.4,2.6c-1,4.2,1.2,8.5,3.3,12
		c4.9,7.5,12.2,13.2,17.6,20.4c3.6,4.8,6.3,10.6,6,16.7c0.1,7.5-3.5,14.5-8.7,19.7c-8,8.1-18.5,13-27.7,19.4
		c-5.8,4-11.8,8.9-14,15.9c-1.4,4-0.1,8.1,0.8,12c3.4,12.7,8.1,25.1,11.4,37.9c1.3,5.7,3.2,11.7,1,17.4c-2.6,1.2-5.4,0.5-7.8-1
		c-7.2-4.3-13.3-10.3-19.2-16.2l-0.2,0.3c-0.4,0.5-1.3,1.4-1.7,1.9c-0.3,9.2,0.2,18.5-0.3,27.7c-0.8,0.5-1.6,1-2.4,1.5
		c-4.5-11.3-8.9-22.6-13.9-33.7c-5.7-12.6-11.6-25.5-20.4-36.3c-3.5-3.9-7.8-8.4-13.4-8.5c-4.3-0.3-7.7,2.8-10.1,6
		c-5.5,7.1-7.9,15.9-10.8,24.2c-3.5,10.3-6.1,20.9-11.2,30.5c-1.4,2.3-3.1,5.4-6.1,5.7c-3.5-0.3-5-4-6.5-6.7
		c-4.8-10.7-6.5-22.4-9.7-33.6c-6.2-23.2-13.2-47.2-29.1-65.7c-11.7-13.8-28.8-22.3-46.6-24.8c-13-1.6-25.8-4.8-38.9-4.6
		c-3.3,0.4-7.9,0.4-9.4,4c-0.1,2.5,1.4,4.7,2.9,6.6c6.8,8.2,15.9,14.1,22.8,22.3c7.7,8.3,10.5,21,6.2,31.6c-1.9,5.3-6.9,9.1-12.5,10
		c-8.1,1.4-16.2-0.9-23.7-3.5c-10.4-3.9-20.1-9.5-29.2-15.9c-5.1-3.8-10.1-7.8-14-12.8c4.7,23.2,9.9,46.3,15.4,69.4
		c2.1,7.8,3.8,15.8,7,23.2c1.4,3.4,5.2,4.5,8.5,5.1c11,1.7,22-1.2,33.1-0.2c4.6,0.3,8.3,4.2,9.1,8.5c1.2,6,0.2,12.1-1.2,18
		c-3.7,13.9-9.5,27.3-17.6,39.2c-6.1,9.6-11.3,19.8-15.9,30.1c-16.8,37.7-26.4,78-40.2,116.8c-11.3,32-25.8,63.8-49.3,88.9
		c-2.9,2.9-5.7,6.8-10.1,7.5c-4.7,0.5-8.1-3.5-10.2-7.2c-4.9-8.7-7.4-18.6-9.3-28.3c-2.6-12.2-1-24.8-2.4-37.1
		c-4.2-57.8-24.3-112.8-32.7-169.9c-1.4-10.1-3.2-20.3-7.6-29.6c-2.6-5.5-6.8-10.7-12.8-12.5c-7.2-2-14.7,0.2-21.5,2.5
		c-12.2,4.2-24.3,9.8-37.4,9.9c-16.6,0.6-32.2-10.8-38.3-26c-7-17.1-6-36.3-3.3-54.2c4-23.5,11.7-46.3,22.1-67.7
		c6.8-14.5,17.1-27,24.6-41.2c4.2-7.9,8.8-16.1,9.8-25.2c0.8-5-2.3-9.3-4.5-13.5c-4.2-7.4-9-14.9-10.1-23.5
		c-1.4-9.2,2.7-18.4,9-24.9c5.7-5.6,13.7-7.3,20.9-10c5.1-1.7,9.3-5.6,11.5-10.5c4.1-8,2.9-17.5,6.6-25.6c3-6.6,9.9-10,16.4-12.4
		c17.6-6.9,37.3-7.7,54-17c5.1-2.7,8.9-7.8,9.1-13.6c0.6-10.1-4.1-19.4-7.3-28.7c-0.8-1.9-1.2-4.5-3.6-5c-4-0.5-7.7,1.8-11.1,3.5
		c-6.6,3.4-12.7,8.2-19.9,10.3c-2.6,1-5.8-0.4-6-3.3c-0.7-6.9,2.1-13.6,4-20.1c2.4-8.8,8.7-15.7,14.3-22.6
		c7.6-8.7,16-17.1,26.5-22.4c5.7-2.9,13.3-4.3,18.8-0.3c6.1,4.6,9.5,12.1,10.5,19.5c1.1,9,0.7,18.3,2.9,27.2
		c4.2-1.2,7.9-3.7,11.8-5.4c11.8-5.5,24-10.3,35.7-16.4c6.7-3.5,13.4-7.4,18.6-13c2-0.7,4.1-0.9,6.3-0.9c0.8,0.6,1.5,1.3,2.3,1.9
		c0.3,0.2,0.8,0.6,1,0.8c4.3,4,7.3,10.3,13.4,12c4.9,0.5,8.4-3.8,10.8-7.5c3.5-7.4,2.1-15.8,1.6-23.6
		C1285.9,449.6,1284.4,441.7,1287.6,434.6 M1362,521.7c-4.5,0.5-9.1,0.8-13.7,0.8c-10.7,1.6-21.6,1.4-32.3,2.9
		c-6,0.4-12.1,0.1-18,0.8c-10.3,0.5-20.7,0-31-0.9c-6.1-0.9-12.2-2.6-18.3-1.6c-10.9,3.3-21.8,6.8-32.5,10.8
		c-5.6,2.7-11.4,5.3-15.7,9.9c0,2.5-0.9,5.9,1.8,7.4c10,6.7,21.7,9.8,32.7,14.5c15.4,5.5,31.2,10.9,44.9,20
		c8.8,5.6,17.3,12.5,22.2,22c3.4,7.1,6.4,14.4,8.9,21.9c10.6,29.1,18.9,59.2,32.8,87c1.2,4.4,4.9,7.2,7.2,11c3.1,4.6,8.1,9,14.1,8.4
		c8.1,0.3,14.2-5.7,20.5-9.9c3-2.3,7.6-3.3,10.8-0.8c5.9,4.5,10.4,10.6,14.1,17c5.4,8.5,7.9,18.4,12.2,27.4
		c3.3,8.6,8.2,16.4,13.7,23.8c3.2,3.3,7,7.1,11.8,7.3c4.2-2,8.1-5.6,9.2-10.3c3.8-10.9,2.1-22.6,2.3-33.9c-1-7.9-1.6-16-0.8-24
		c2.9,2.6,5.6,5.4,8.3,8.1c3,3.1,7,4.9,9.8,8.1c5.4,6.1,12.5,10.4,19.6,14.2c3.3,1.5,8.5,2.5,10.8-1.3c2.5-4.2,2.4-9.4,2.4-14.2
		c-1.3-13.7-3.7-27.3-5.4-41c-1.3-10.3-2.4-20.6-1.3-31c1.1-6.8,4-14.4,10.7-17.5c0-0.5,0.1-1.4,0.1-1.9c-2.6-1.8-5.2-3.6-8-5
		c-18.4-9-37.6-16.3-55.4-26.5c-9-4.6-17.3-10.7-24-18.2c-3.9-4.3-6.6-10.1-6.7-15.9c-0.3-5,2.1-9.7,5-13.6c6.8-4.8,15.4-5.3,23.1-8
		c6.5-1.6,10.6-7.3,14.6-12.2c3.2-4.1,8-6.4,12.7-8.3c-2.9-3.7-6.6-6.5-10.4-9.1c-17.2-12.1-38.3-16.5-58.9-18.1
		C1391.1,521.2,1376.5,521.2,1362,521.7 M1257.6,620.8c-1.8,16-3.2,32.9,2.2,48.4c2.3,5.5,6.4,10.7,12,13.1c2.6,1.2,5.2-1,5.9-3.5
		c2-6.3,0.8-13.1-1.4-19.2c-4.2-11.8-11.3-22.3-16.2-33.8C1259.3,624.2,1259,622.2,1257.6,620.8 M1125.4,623.5
		c-6.3,2.4-10.6,8.1-14.6,13.3c-1.9,2.1-2.9,5.4-5.9,6.3c-4.2,1.5-8.7,2.1-13,3.4c-5,1.5-9.1,5.1-13.3,8.1
		c-3.9,3.3-8.2,6.5-10.2,11.3c-1.1,3,1.3,5.7,3.9,6.8c7.5,3.2,15.7,3.4,23.6,4.8c4.6,0.8,9.6,1.2,13.6,4c1.8,2.1,2.6,4.8,3.3,7.5
		c1.6,5.9-0.3,12.6,3,18.1c3.4,5.6,8.5,10,13.8,13.7c3.1,2.2,8.3,3.3,10.9-0.2c4.8-6.1,5.2-14.7,10.7-20.4c2.8-3,7.5-3,11.1-1.5
		c11.2,3.9,15.6,17.5,27.2,20.8c6,1.5,12.2-0.5,17.4-3.5c4.4-2.5,7.4-7.7,6.4-12.8c-1.4-8.7-7.2-15.9-13.2-22
		c-6.6-6.3-14.1-12.1-23-14.6c-4.2-1.4-8.6,0.5-12.8-0.7c-7.3-1.7-12.3-7.9-16-14c-4.8-7.7-7.7-16.5-13.1-23.9
		C1133.1,624.7,1129.3,622.3,1125.4,623.5 M1192.4,627.6c-4.6,2.8-7.5,8.1-7.9,13.4c-0.2,1.4,1,2.8,2.4,2.8c5.6,0.7,10.6-2.8,16-3.3
		c6.4,0.1,11.3,4.6,15.9,8.6c3.6,3.1,8.5,2.3,12.7,1.1c0.4-3.5-1.1-6.9-2.8-9.9c-5-7.4-13-12.6-21.7-14.5
		C1202.1,624.8,1196.8,625.1,1192.4,627.6 M1279.5,666.9c-0.4,3.1-0.8,6.3,0.3,9.3C1280.5,673.1,1280.8,669.8,1279.5,666.9
		 M1072.6,763.4c-4.7,8-10.9,15.2-14.8,23.8c-6.9,8.6-13.3,17.7-18.7,27.3c-3.4,5.4-6.9,11-8.7,17.2c-0.2,2.3-1,6,2.1,6.8
		c5.6,0.8,11.1-0.6,16.5-2.1c11.1-2.5,22.4-5.6,33.9-4.3c7.9,0.5,15.3,4.5,20.7,10.2c10.1,14.1,12.2,31.7,16.2,48.1
		c0.4,6.3,2.1,12.5,2.6,18.8c3.5,19.3,5.9,38.9,10,58.1c3.7,16.2,7,33.1,15.7,47.5c2.8,4.7,6.4,9.3,11.6,11.5
		c4.9,1.8,10.8-0.4,13.3-5c3.1-5.5,5.7-11.7,5.3-18.2c0.4-13.4-3.2-26.5-3-39.9c0.1-3.9-0.7-8.4,1.8-11.7c4.6-4.7,11.5-5.7,17.6-7.2
		c5-1.1,11.8-0.8,14.5-6c0.1-8.1-5.2-15-8.5-22.2c-9.1-15.4-17.5-31.3-25.9-47.2c-5.3-8.4-9.4-17.5-15.1-25.6
		c-14.1-23.1-32-44.4-54.3-60c-8.8-7.5-19-13.2-28.9-19C1075.5,763.4,1074,763.3,1072.6,763.4z"/>
	<path fill="#32DE34" stroke="#32DE34" stroke-width="0.394" d="M1601.9,1006.9c1.5-0.7,3-1.3,4.6-1.8c3.6,7.9,9.9,14.8,18.3,17.4
		c4.1,3.9,10.2,0.9,15.1,2.6c2.1,1.6,4.4,3.4,5.3,5.9c0.7,5.8,0.1,11.7,0.4,17.6c-4.1,14.8-13,27.8-22.1,40
		c-11.4,14.7-24.3,28.5-38.8,40.2c-6.6,5.1-13.4,10.2-21.3,12.8c-3.6,1.2-8.6,1.4-10.5-2.5c-2.8-7.2,0.4-14.8,2.1-21.9
		c-16.3,9-30.4,22.8-49,26.9c-4,0.3-10.2,1.7-12.2-2.9c-1.6-5.7,0.3-11.7,1.9-17.2c5.9-17.8,15.1-34.3,25.9-49.4
		C1542.3,1045.9,1569.7,1021.8,1601.9,1006.9z"/>
	<path fill="#32DE34" stroke="#32DE34" stroke-width="0.394" d="M1269.6,1063.4c0.2,0,0.4-0.1,0.6-0.2c4.3,9.3,9.8,18.4,11.2,28.7
		c0.8,6.5-0.2,13.7-5,18.5c-5.6,6.1-16.7,6.8-22.2,0.2c-4.9-5.8-3.7-14.1-1.2-20.6C1256.6,1079.9,1264.5,1072.5,1269.6,1063.4z"/>
	<path fill="#268DC0" stroke="#268DC0" stroke-width="0.394" d="M1275.4,437c0.2-3.8,0.8-9.1,5.2-10.3c-2.3,3-4.2,6.5-4.2,10.4
		c-0.6,11.8,2.4,23.5,0.7,35.3c-0.5,1.9-2.1,3.4-4,3.8c-4.2,0.8-8.4,0.3-12.5,0c-0.3-0.2-0.8-0.6-1-0.8c4.2,0,8.4,0.5,12.5-0.2
		c1.5-0.4,3.5-1.3,3.4-3.1c0.5-4.3,1.4-8.7,0.8-13C1275.1,451.8,1275.4,444.4,1275.4,437z"/>
	<path fill="#268DC0" stroke="#268DC0" stroke-width="0.394" d="M838.7,556.9c0.9-1.4,2.3-2.3,3.9-2.6c0,0.7,0.1,2.1,0.2,2.8
		c1.8,0.1,3.5,0.2,5.3,0.3c7.2,0.5,14-3,21.2-1.9C859.3,557.6,848.7,560.1,838.7,556.9z"/>
	<path fill="#80FF00" stroke="#80FF00" stroke-width="0.394" d="M1362,521.7c14.5-0.4,29.1-0.4,43.6-0.1c20.6,1.6,41.8,6,58.9,18.1
		c3.8,2.6,7.5,5.5,10.4,9.1c-4.7,1.9-9.6,4.2-12.7,8.3c-4,4.9-8.2,10.6-14.6,12.2c-7.7,2.7-16.3,3.2-23.1,8c-2.9,3.9-5.3,8.6-5,13.6
		c0.1,5.9,2.7,11.6,6.7,15.9c6.7,7.6,15,13.6,24,18.2c17.8,10.2,37,17.5,55.4,26.5c2.8,1.4,5.4,3.2,8,5c0,0.5-0.1,1.4-0.1,1.9
		c-6.7,3.1-9.6,10.7-10.7,17.5c-1,10.3,0,20.7,1.3,31c1.8,13.7,4.1,27.3,5.4,41c0,4.8,0.2,9.9-2.4,14.2c-2.3,3.7-7.4,2.8-10.8,1.3
		c-7.1-3.8-14.2-8.1-19.6-14.2c-2.9-3.2-6.9-5-9.8-8.1c-2.7-2.8-5.4-5.6-8.3-8.1c-0.8,8-0.2,16.1,0.8,24c-0.2,11.3,1.4,23-2.3,33.9
		c-1.1,4.7-5,8.3-9.2,10.3c-4.8-0.3-8.6-4-11.8-7.3c-5.5-7.3-10.4-15.2-13.7-23.8c-4.3-9-6.8-18.9-12.2-27.4
		c-3.7-6.4-8.1-12.6-14.1-17c-3.2-2.6-7.8-1.5-10.8,0.8c-6.3,4.2-12.4,10.2-20.5,9.9c-5.9,0.6-11-3.8-14.1-8.4
		c-2.3-3.8-6-6.6-7.2-11c-13.9-27.8-22.2-57.9-32.8-87c-2.5-7.5-5.4-14.8-8.9-21.9c-4.9-9.4-13.3-16.4-22.2-22
		c-13.7-9.2-29.5-14.6-44.9-20c-10.9-4.7-22.7-7.7-32.7-14.5c-2.7-1.5-1.8-4.9-1.8-7.4c4.3-4.6,10.1-7.3,15.7-9.9
		c10.7-4,21.6-7.5,32.5-10.8c6.1-1,12.3,0.7,18.3,1.6c10.3,0.9,20.6,1.4,31,0.9c6-0.7,12-0.4,18-0.8c10.7-1.5,21.6-1.3,32.3-2.9
		C1352.9,522.5,1357.5,522.2,1362,521.7z"/>
	<path fill="#80FF00" stroke="#80FF00" stroke-width="0.394" d="M747.3,572.5c4.1-0.4,8.1-1.2,12.2-1.2c5.4,23.9,8.5,48.3,10.8,72.7
		c0.3,9,0.5,18,0.1,27c-0.3,7.1-4.9,12.9-9.4,18c-4,3.3-8.6,6.7-14,6.6c-4.7,0-9.5,0.3-13.7-2.1c-7.1-2.3-13.8-6.2-21.3-6.8
		c-10.9,0.6-18.8,9.2-25.1,17.2c-7.1,9.7-13.3,20.1-19.7,30.4c-1.4,4.5-5.6,7-8.5,10.4c-4.4,5-9.6,10.1-16.3,11.8
		c-3.8,0.9-7.3-1.9-8.3-5.5c-1.4-5.9-2-12-0.8-17.9c0.7-9.5,3.1-18.8,6.2-27.8c2.1-5.9,6.2-10.8,9.8-15.8c3.7-5.1,8.9-8.6,13.5-12.8
		c3-2.8,6.4-5.3,10-7.4c12.1-10.2,26.8-17.1,38-28.4c3.2-3.4,5.3-8.1,4.7-12.8c-1.2-9.9-10.2-17.6-9.1-28
		c0.5-7.2,6.8-12.3,12.3-16.1C727.6,578.8,737,573.9,747.3,572.5z"/>
	<path fill="#80FF00" stroke="#80FF00" stroke-width="0.394" d="M1072.6,763.4c1.4-0.1,2.8,0,4.1,0.8c10,5.8,20.2,11.4,28.9,19
		c22.3,15.7,40.2,36.9,54.3,60c5.7,8.1,9.8,17.3,15.1,25.6c8.4,15.8,16.8,31.7,25.9,47.2c3.3,7.1,8.6,14,8.5,22.2
		c-2.7,5.2-9.5,4.9-14.5,6c-6.1,1.5-13,2.5-17.6,7.2c-2.5,3.3-1.8,7.8-1.8,11.7c-0.2,13.4,3.4,26.5,3,39.9
		c0.4,6.5-2.2,12.7-5.3,18.2c-2.5,4.6-8.4,6.8-13.3,5c-5.2-2.2-8.8-6.7-11.6-11.5c-8.8-14.4-12-31.3-15.7-47.5
		c-4.2-19.2-6.5-38.8-10-58.1c-0.5-6.3-2.2-12.5-2.6-18.8c-4.1-16.4-6.1-34-16.2-48.1c-5.4-5.7-12.8-9.7-20.7-10.2
		c-11.5-1.3-22.8,1.8-33.9,4.3c-5.3,1.5-10.9,2.9-16.5,2.1c-3.1-0.7-2.3-4.4-2.1-6.8c1.8-6.2,5.2-11.8,8.7-17.2
		c5.4-9.6,11.8-18.7,18.7-27.3C1061.7,778.6,1067.9,771.4,1072.6,763.4z"/>
	<path fill="#80FF00" stroke="#80FF00" stroke-width="0.394" d="M773.3,908c5.6,3.8,10,9.3,15.2,13.6c5.3,4.3,10.3,9,15.3,13.6
		c11.9,9.5,24.5,18.1,36,28c9.5,7.6,19.4,14.6,28.7,22.4c8.1,7.2,17,13.8,22.8,23.1c3.2,5.1,4,11.2,3.2,17
		c-4.4,17.7-21,29.4-24.7,47.3c-1.2,4-2.6,8.3-6,11c-4.9,2.5-10.5,0.7-15.2-1.6c-9.2-4.7-15.8-13-21.8-21.2
		c-8.7-13-15.2-27.4-21.5-41.8c-13.4-32.9-23.3-67.1-31-101.7C774.2,914.5,772.2,911.2,773.3,908z"/>
	<path fill="#2584B4" stroke="#2584B4" stroke-width="0.394" d="M1550.8,616.8c3.5-0.1,7,0.4,10.4,1.1c0.2,0.4,0.7,1.1,0.9,1.4
		c-2.4-1-5.1-1.1-7.7-1c0.1,0.6,0.3,1.9,0.4,2.6C1553.5,619.5,1552.1,618.2,1550.8,616.8z"/>
	<path fill="#2584B4" stroke="#2584B4" stroke-width="0.394" d="M1082.4,665.1c0.7-0.9,1.5-1.9,2.2-2.8l0.3,0.6
		c0.3,0.6,0.9,1.8,1.2,2.4c9.3,0.5,18.6,1.8,27.9,2.5l0.9,0.8c-6.3-0.4-12.6-1.1-18.9-1.3C1091.4,666.9,1086.7,666.7,1082.4,665.1z"
		/>
	<path fill="#47CA48" stroke="#47CA48" stroke-width="0.394" d="M1279.5,666.9c1.3,2.9,1,6.2,0.3,9.3
		C1278.7,673.2,1279.1,670,1279.5,666.9z"/>
	<path fill="#000101" stroke="#000101" stroke-width="0.394" d="M694.2,822.1c3.3-4.9,7.6-9.1,10.9-14c7.6,9.1,14.6,19.7,15.2,32
		c0.6,8.3-5.5,16.6-1.6,24.7c2.7,0.1,5.4,0.1,7.8-1.3c9.5-4.6,18.2-10.5,27.5-15.3c8.3-4.1,17.5-7.4,27-6.4
		c10,0.9,18.7,6.8,25.7,13.5c15.7,14.7,27.3,33,39.6,50.5c8,11.9,19.6,20.7,31.1,29c18.8,13.3,38.8,25.3,55.5,41.4
		c11.5,11.3,21.3,26.2,20.7,43c-0.4,18-11.1,33.4-21.6,47.3c5.4-8.5,11.4-16.8,15-26.3c3.8-9.4,5.7-20,3.1-30
		c-2.5-10.6-9.6-19.5-17.1-27.1c-28.6-29.3-70.4-41.3-97.7-72.2c-9.3-10.1-15.5-22.5-23.3-33.8c-4.8-6.8-10.5-13.3-18-17.1
		c-9.2-4.9-19.9-5.2-30-4.1c-8.2,1.5-16,4.8-23.9,7.5c-11,3.7-21.8,8.4-33.4,10.2c-1.7-2.4-2.7-5.4-2.2-8.3c1.4-11,8.1-20.3,10.5-31
		c0.6-2.3-0.4-5.5-3.1-5.8c-6.5-0.7-11.8,4.5-18.2,4.4C691.7,829.5,692,825.2,694.2,822.1z"/>
	<path fill="#000101" stroke="#000101" stroke-width="0.394" d="M1532.5,945.8c3.4-16.5,11.3-31.6,19.7-46
		c5.9,14,14.3,27.6,15.3,43.2c-0.5,8.3-3.1,16.7-8,23.5c-2.5,3-5.5,6-9.4,6.8c-5.5,1.2-11-1.8-14.6-5.8
		C1530.7,961.3,1531.1,953,1532.5,945.8 M1539.7,939.5c-1,6.1-1,13.4,3.7,18.1c2.6,2.9,7.6,2.9,10.4,0.3c3.6-3.2,5-8.2,5.7-12.8
		c1.3-11.9-0.8-23.8-4.1-35.2C1548.2,918.6,1541.9,928.4,1539.7,939.5z"/>
	<path fill="#1D9BD8" stroke="#1D9BD8" stroke-width="0.394" d="M1275.8,825.5c5.1-0.8,10.3-0.7,15.4-0.2
		C1286.4,827.1,1280.8,826.6,1275.8,825.5z"/>
	<path fill="#4ABA49" stroke="#4ABA49" stroke-width="0.394" d="M1499.5,858.5c0.4-0.5,1.3-1.4,1.7-1.9c0.1,10.8-1.6,21.7-0.1,32.5
		c0.4,4.9,2.2,9.4,2.9,14.3c-3-5-5.1-10.4-7.3-15.7c0.8-0.5,1.5-1,2.4-1.5C1499.7,876.9,1499.2,867.7,1499.5,858.5z"/>
	<path fill="#4ABA49" stroke="#4ABA49" stroke-width="0.394" d="M1624.8,1022.5c6.3,1.3,13.6-0.5,19,3.6c4.7,6.3,4,15.3,1.8,22.5
		c-0.3-5.9,0.3-11.8-0.4-17.6c-0.9-2.5-3.2-4.3-5.3-5.9C1635,1023.4,1628.9,1026.5,1624.8,1022.5z"/>
	<path fill="#4ABA49" stroke="#4ABA49" stroke-width="0.394" d="M901.9,1231.4c-0.9-2.6-0.4-5.3-0.2-8c2.3,10,4.3,20.2,3.8,30.5
		c-0.3,3.7-1.3,8.6-5.4,9.9c-4.1,1.1-8.3-1.1-11.5-3.5c3.1,0,5.7,1.7,8.5,2.7c2.8,0.8,5-2,6-4.2c1.5-4.4,1.5-9.2,1-13.8
		C903.4,1240.5,903.4,1235.8,901.9,1231.4z"/>
	<path fill="#32DD34" stroke="#32DD34" stroke-width="0.394" d="M1539.7,939.5c2.2-11.1,8.6-20.9,15.6-29.6
		c3.4,11.4,5.5,23.3,4.1,35.2c-0.7,4.6-2.1,9.5-5.7,12.8c-2.8,2.7-7.8,2.7-10.4-0.3C1538.7,952.9,1538.6,945.6,1539.7,939.5z"/>
	<path fill="#32DD34" stroke="#32DD34" stroke-width="0.394" d="M1632.6,951.5c2.1-2.9,5.9-4,9.4-4.2c9.4-0.5,18.4,3,26.6,7.2
		c5.4,3,11,5.8,15.6,9.9c-11.1,3-22.7,4.1-34.1,2.9c-5.8-1-12.1-2.6-16.3-7.2C1631.6,958,1630.7,954.2,1632.6,951.5z"/>
	<path fill="#000202" stroke="#000202" stroke-width="0.394" d="M1480.1,925.3c8,0.9,15.4,4.4,22.3,8.4c7.7,4.8,15,11.4,17.7,20.3
		c1.6,6.6,0.8,14.1-3.4,19.5c-1.3,1.3-2.5,3.1-4.5,3.1c-5.6,1-10.1-3.3-13.5-7.1c-6.4-7-9.7-16-13.4-24.6
		C1482.8,938.6,1480.5,932.1,1480.1,925.3 M1487.4,930.3c0.7,7.2,2.2,14.3,4.5,21.2c2,5.4,4.4,11.1,9.3,14.5
		c2.3,1.5,5.8,0.9,6.9-1.9c1.7-4.2,0.6-9-1.2-13C1502.8,942.3,1495.3,935.6,1487.4,930.3z"/>
	<path fill="#32DC34" stroke="#32DC34" stroke-width="0.394" d="M1487.4,930.3c7.9,5.3,15.3,12,19.5,20.8c1.8,4,2.9,8.8,1.2,13
		c-1.1,2.8-4.6,3.4-6.9,1.9c-4.9-3.4-7.3-9.1-9.3-14.5C1489.6,944.6,1488.1,937.5,1487.4,930.3z"/>
	<path fill="#0E628E" stroke="#0E628E" stroke-width="0.394" d="M1750.6,981.9c0.7-6.5,1.3-13.1,3.2-19.4c0.6,2.2-0.2,4.4-0.4,6.5
		c-0.9,4.5-1.3,9.1-2.3,13.6L1750.6,981.9z"/>
	<path fill="#000302" stroke="#000302" stroke-width="0.394" d="M1254.5,1079.1c3.8-8.4,8.1-16.6,13.6-24
		c5.1,5.1,8.7,11.5,12.1,17.8c4.4,8.6,8,18.2,7.2,28.1c-0.5,6.7-4.7,12.9-10.7,15.8c-6.2,3.1-13.4,4.4-20.3,3.6
		c-4.3-0.7-8.1-4-8.9-8.4C1245.8,1100.5,1250.1,1089.4,1254.5,1079.1 M1269.6,1063.4c-5.1,9.1-13.1,16.6-16.5,26.6
		c-2.5,6.5-3.6,14.8,1.2,20.6c5.5,6.7,16.5,5.9,22.2-0.2c4.7-4.8,5.8-12.1,5-18.5c-1.4-10.3-6.9-19.4-11.2-28.7
		C1270.1,1063.3,1269.8,1063.3,1269.6,1063.4z"/>
	<path fill="#1D78D7" stroke="#1D78D7" stroke-width="0.394" d="M1414.8,1258.2c6.7-0.7,13.6-1.2,20.2,0.2
		C1428.4,1259,1421.4,1259.7,1414.8,1258.2z"/>
</g>
</svg>
